<svg width="30" height="30" viewBox="0 0 30 30" fill="none" xmlns="http://www.w3.org/2000/svg">
<g clip-path="url(#clip0_504_692)">
<path d="M19.4988 8.39622C19.8274 7.7284 19.9988 6.99426 20 6.24997H20.7263C21.5282 6.24997 22.2973 6.56854 22.8644 7.13561C23.4314 7.70267 23.75 8.47177 23.75 9.27372V13.0225C22.9474 12.6766 22.0814 12.5021 21.2075 12.51V11.4575C21.1508 10.8564 20.9696 10.2736 20.6754 9.74639C20.3812 9.21914 19.9805 8.76015 19.4988 8.39622ZM8.78875 12.5037V11.485C8.84228 10.8791 9.02222 10.2912 9.31697 9.75921C9.61172 9.22719 10.0147 8.76288 10.5 8.39622C10.1714 7.7284 9.99994 6.99426 9.99875 6.24997H9.2725C8.87542 6.24997 8.48222 6.32818 8.11536 6.48014C7.7485 6.6321 7.41517 6.85483 7.13439 7.13561C6.85361 7.41639 6.63088 7.74972 6.47892 8.11658C6.32696 8.48344 6.24875 8.87664 6.24875 9.27372V13.015L6.255 13.0187C7.05487 12.6737 7.91764 12.4983 8.78875 12.5037ZM12.9125 14.0937L14.2788 15.3512C14.6863 15.7262 15.3125 15.7262 15.72 15.3512L17.05 14.1275C17.5548 13.6751 18.1288 13.3062 18.75 13.035V13.025C18.75 12.223 18.4314 11.4539 17.8644 10.8869C17.2973 10.3198 16.5282 10.0012 15.7263 10.0012H14.275C13.4731 10.0012 12.7039 10.3198 12.1369 10.8869C11.5698 11.4539 11.2513 12.223 11.2513 13.025C11.8438 13.2837 12.4063 13.64 12.9138 14.0937H12.9125ZM10 4.99997C10.3329 5.0075 10.664 4.94844 10.9738 4.82626C11.2836 4.70407 11.5658 4.52123 11.804 4.28847C12.0421 4.0557 12.2314 3.7777 12.3606 3.47079C12.4898 3.16388 12.5564 2.83424 12.5565 2.50124C12.5566 2.16823 12.4902 1.83856 12.3611 1.53158C12.232 1.22461 12.0429 0.946513 11.8049 0.713628C11.5668 0.480743 11.2847 0.29776 10.9749 0.175423C10.6652 0.0530855 10.3342 -0.0061407 10.0013 0.00122142C9.34805 0.0156659 8.72646 0.285252 8.26954 0.75227C7.81262 1.21929 7.55668 1.84662 7.55652 2.49999C7.55636 3.15335 7.81198 3.78081 8.26866 4.24806C8.72535 4.7153 9.34681 4.9852 10 4.99997ZM15 8.74997C15.3329 8.7575 15.664 8.69844 15.9738 8.57626C16.2836 8.45407 16.5658 8.27123 16.804 8.03847C17.0421 7.8057 17.2314 7.5277 17.3606 7.22079C17.4898 6.91388 17.5564 6.58424 17.5565 6.25124C17.5566 5.91823 17.4902 5.58856 17.3611 5.28158C17.232 4.97461 17.0429 4.69651 16.8049 4.46363C16.5668 4.23074 16.2847 4.04776 15.9749 3.92542C15.6652 3.80309 15.3342 3.74386 15.0013 3.75122C14.348 3.76567 13.7265 4.03525 13.2695 4.50227C12.8126 4.96929 12.5567 5.59662 12.5565 6.24999C12.5564 6.90335 12.812 7.53081 13.2687 7.99806C13.7253 8.4653 14.3468 8.7352 15 8.74997ZM20 4.99997C20.3329 5.0075 20.664 4.94844 20.9738 4.82626C21.2836 4.70407 21.5658 4.52123 21.804 4.28847C22.0421 4.0557 22.2314 3.7777 22.3606 3.47079C22.4898 3.16388 22.5564 2.83424 22.5565 2.50124C22.5566 2.16823 22.4902 1.83856 22.3611 1.53158C22.232 1.22461 22.0429 0.946513 21.8049 0.713628C21.5668 0.480743 21.2847 0.29776 20.9749 0.175423C20.6652 0.0530855 20.3342 -0.0061407 20.0012 0.00122142C19.348 0.0156659 18.7265 0.285252 18.2695 0.75227C17.8126 1.21929 17.5567 1.84662 17.5565 2.49999C17.5564 3.15335 17.812 3.78081 18.2687 4.24806C18.7253 4.7153 19.3468 4.9852 20 4.99997ZM23.0438 19.6087L19.935 22.7737C19.7825 21.2425 19.0988 19.8012 17.9513 18.7587L16.8588 17.7662L19.125 15.7087C19.4314 15.4316 19.7959 15.2264 20.1919 15.1082C20.5878 14.99 21.0051 14.9618 21.4133 15.0257C21.8216 15.0896 22.2104 15.2439 22.5513 15.4773C22.8922 15.7108 23.1766 16.0175 23.3838 16.375C23.9838 17.3937 23.7975 18.6975 23.0438 19.6075V19.6087ZM28.125 6.24997C27.6277 6.24997 27.1508 6.44752 26.7992 6.79915C26.4475 7.15078 26.25 7.62769 26.25 8.12497V17.5H26.2363C26.3037 18.8124 25.8774 20.1025 25.0413 21.1162L20 26.2262V28.75C20 29.0815 20.1317 29.3994 20.3661 29.6339C20.6005 29.8683 20.9185 30 21.25 30H25.3863C25.5599 30.0001 25.7317 29.9639 25.8906 29.8937C26.0494 29.8235 26.1919 29.7209 26.3088 29.5925L27.0563 28.775C28.9498 26.7017 29.9998 23.9953 30 21.1875V8.12497C30 7.62769 29.8025 7.15078 29.4508 6.79915C29.0992 6.44752 28.6223 6.24997 28.125 6.24997ZM16.2713 20.6087L10.875 15.7087C10.5686 15.4316 10.2041 15.2264 9.80814 15.1082C9.41221 14.99 8.99488 14.9618 8.58666 15.0257C8.17844 15.0896 7.78965 15.2439 7.44874 15.4773C7.10782 15.7108 6.82339 16.0175 6.61625 16.375C6.01625 17.3937 6.2025 18.6975 6.95625 19.6075L10.1413 22.8237C10.2558 22.9394 10.3465 23.0766 10.4081 23.2274C10.4696 23.3781 10.5009 23.5396 10.5001 23.7024C10.4993 23.8653 10.4664 24.0264 10.4033 24.1765C10.3403 24.3266 10.2482 24.4629 10.1325 24.5775C10.0168 24.6921 9.87961 24.7827 9.72885 24.8443C9.57808 24.9059 9.41667 24.9371 9.25381 24.9363C9.09096 24.9355 8.92987 24.9026 8.77972 24.8395C8.62958 24.7765 8.49333 24.6845 8.37875 24.5687L4.96 21.115C4.12436 20.1009 3.69812 18.811 3.765 17.4987H3.75125V8.12372C3.75125 7.62644 3.55371 7.14953 3.20208 6.7979C2.85045 6.44627 2.37353 6.24872 1.87625 6.24872C1.37897 6.24872 0.902057 6.44627 0.550426 6.7979C0.198795 7.14953 0.00125123 7.62644 0.00125122 8.12372V21.1862C0.00122745 23.9941 1.05125 26.7005 2.945 28.7737L3.6925 29.5912C3.80953 29.7195 3.952 29.822 4.11083 29.8921C4.26966 29.9623 4.44137 29.9986 4.615 29.9987H16.2513C16.5828 29.9987 16.9007 29.867 17.1351 29.6326C17.3696 29.3982 17.5013 29.0802 17.5013 28.7487V23.3837C17.5013 22.8609 17.392 22.3438 17.1804 21.8657C16.9688 21.3876 16.6595 20.959 16.2725 20.6075L16.2713 20.6087Z" fill="url(#paint0_linear_504_692)"/>
</g>
<defs>
<linearGradient id="paint0_linear_504_692" x1="15.0006" y1="0.000610352" x2="15.0006" y2="30" gradientUnits="userSpaceOnUse">
<stop stop-color="#1EDCE3"/>
<stop offset="1" stop-color="#2783EC"/>
</linearGradient>
<clipPath id="clip0_504_692">
<rect width="30" height="30" fill="white"/>
</clipPath>
</defs>
</svg>
