<svg width="30" height="30" viewBox="0 0 30 30" fill="none" xmlns="http://www.w3.org/2000/svg">
<g clip-path="url(#clip0_504_700)">
<path d="M16.5875 9.35001C16.0842 9.85307 15.685 10.4503 15.4126 11.1077C15.1402 11.7651 15 12.4697 15 13.1813V14.375C15 14.5408 15.0658 14.6997 15.1831 14.817C15.3003 14.9342 15.4592 15 15.625 15H16.8188C18.2552 14.9998 19.6328 14.4293 20.6487 13.4138L29.0425 5.02001C30.105 3.95751 30.3088 2.22501 29.3575 1.06126C29.1039 0.749017 28.7876 0.493513 28.429 0.311291C28.0704 0.12907 27.6775 0.024194 27.2758 0.00345461C26.8741 -0.0172847 26.4725 0.0465748 26.0971 0.190898C25.7216 0.335222 25.3806 0.556791 25.0962 0.84126L16.5875 9.35001ZM22.4175 15.18C21.6841 15.9177 20.8115 16.5024 19.8505 16.9004C18.8894 17.2985 17.859 17.5018 16.8188 17.4988H15C14.337 17.4988 13.7011 17.2354 13.2322 16.7665C12.7634 16.2977 12.5 15.6618 12.5 14.9988V13.18C12.5 11.065 13.3237 9.07751 14.8187 7.58126L21.6537 0.74876C20.7622 0.264037 19.7648 0.00684927 18.75 9.58491e-06H6.25C2.80375 9.58491e-06 0 2.80376 0 6.25001V23.75C0 27.1963 2.80375 30 6.25 30H18.75C22.1963 30 25 27.1963 25 23.75V12.5988L22.4175 15.1813V15.18ZM10.2087 20.8325L8.1 22.9413C7.59833 23.4459 6.92056 23.7365 6.20914 23.7519C5.49771 23.7673 4.80802 23.5063 4.285 23.0238L3.44875 22.3C3.21236 22.079 3.07081 21.7749 3.05382 21.4517C3.03684 21.1285 3.14575 20.8113 3.35767 20.5667C3.56959 20.3221 3.86805 20.1692 4.19037 20.1399C4.51269 20.1107 4.83379 20.2075 5.08625 20.41L5.9475 21.1575C6.07625 21.2738 6.2325 21.2725 6.33125 21.1738L8.44 19.065C8.67439 18.8306 8.99228 18.6989 9.32375 18.6989C9.65522 18.6989 9.97311 18.8306 10.2075 19.065C10.4419 19.2994 10.5736 19.6173 10.5736 19.9488C10.5736 20.2802 10.4431 20.5981 10.2087 20.8325ZM10.2087 14.5825L8.1 16.6913C7.59833 17.1959 6.92056 17.4865 6.20914 17.5019C5.49771 17.5173 4.80802 17.2563 4.285 16.7738L3.44875 16.05C3.21236 15.829 3.07081 15.5249 3.05382 15.2017C3.03684 14.8785 3.14575 14.5613 3.35767 14.3167C3.56959 14.0721 3.86805 13.9192 4.19037 13.8899C4.51269 13.8607 4.83379 13.9575 5.08625 14.16L5.9475 14.9075C6.07625 15.0238 6.2325 15.0225 6.33125 14.9238L8.44 12.815C8.55606 12.699 8.69383 12.6069 8.84547 12.5441C8.9971 12.4813 9.15962 12.4489 9.32375 12.4489C9.48788 12.4489 9.6504 12.4813 9.80203 12.5441C9.95367 12.6069 10.0914 12.699 10.2075 12.815C10.3236 12.9311 10.4156 13.0688 10.4784 13.2205C10.5412 13.3721 10.5736 13.5346 10.5736 13.6988C10.5736 13.8629 10.5412 14.0254 10.4784 14.177C10.4156 14.3287 10.3248 14.4665 10.2087 14.5825ZM10.2087 8.38251L8.1 10.4913C7.59833 10.9959 6.92056 11.2865 6.20914 11.3019C5.49771 11.3173 4.80802 11.0563 4.285 10.5738L3.44875 9.85001C3.21236 9.62897 3.07081 9.32492 3.05382 9.00173C3.03684 8.67854 3.14575 8.36133 3.35767 8.11673C3.56959 7.87213 3.86805 7.71915 4.19037 7.68993C4.51269 7.66071 4.83379 7.75751 5.08625 7.96001L5.9475 8.70751C6.07625 8.82501 6.2325 8.82251 6.33125 8.72376L8.44 6.61501C8.67439 6.38062 8.99228 6.24895 9.32375 6.24895C9.65522 6.24895 9.97311 6.38062 10.2075 6.61501C10.4419 6.84939 10.5736 7.16729 10.5736 7.49876C10.5736 7.83023 10.4431 8.14812 10.2087 8.38251ZM20 22.4988H15C14.6685 22.4988 14.3505 22.3671 14.1161 22.1326C13.8817 21.8982 13.75 21.5803 13.75 21.2488C13.75 20.9172 13.8817 20.5993 14.1161 20.3649C14.3505 20.1305 14.6685 19.9988 15 19.9988H20C20.3315 19.9988 20.6495 20.1305 20.8839 20.3649C21.1183 20.5993 21.25 20.9172 21.25 21.2488C21.25 21.5803 21.1183 21.8982 20.8839 22.1326C20.6495 22.3671 20.3315 22.4988 20 22.4988Z" fill="url(#paint0_linear_504_700)"/>
</g>
<defs>
<linearGradient id="paint0_linear_504_700" x1="14.9838" y1="-0.000366211" x2="14.9838" y2="30" gradientUnits="userSpaceOnUse">
<stop stop-color="#1EDCE3"/>
<stop offset="1" stop-color="#2783EC"/>
</linearGradient>
<clipPath id="clip0_504_700">
<rect width="30" height="30" fill="white"/>
</clipPath>
</defs>
</svg>
