<svg width="13" height="12" viewBox="0 0 13 12" fill="none" xmlns="http://www.w3.org/2000/svg">
<path fill-rule="evenodd" clip-rule="evenodd" d="M6.32529 0.171522C6.71734 0.441528 6.7809 0.934015 6.46726 1.27152L2.07312 6L6.46726 10.7285C6.7809 11.066 6.71734 11.5585 6.32529 11.8285C5.93323 12.0985 5.36115 12.0438 5.04751 11.7063L0.199047 6.48889C-0.0665658 6.20307 -0.0665658 5.79693 0.199047 5.51111L5.04751 0.293744C5.36115 -0.0437635 5.93323 -0.0984842 6.32529 0.171522Z" fill="#202A45"/>
<path opacity="0.47" fill-rule="evenodd" clip-rule="evenodd" d="M12.3253 0.171522C12.7173 0.441528 12.7809 0.934015 12.4673 1.27152L8.07312 6L12.4673 10.7285C12.7809 11.066 12.7173 11.5585 12.3253 11.8285C11.9332 12.0985 11.3611 12.0438 11.0475 11.7063L6.19905 6.48889C5.93343 6.20307 5.93343 5.79693 6.19905 5.51111L11.0475 0.293744C11.3612 -0.0437635 11.9332 -0.0984842 12.3253 0.171522Z" fill="#202A45"/>
</svg>
