<?xml version="1.0" encoding="utf-8"?>
<!-- Generator: Adobe Illustrator 28.2.0, SVG Export Plug-In . SVG Version: 6.00 Build 0)  -->
<svg version="1.1" id="Layer_1" xmlns="http://www.w3.org/2000/svg" xmlns:xlink="http://www.w3.org/1999/xlink" x="0px" y="0px"
	 viewBox="0 0 250 30" style="enable-background:new 0 0 250 30;" xml:space="preserve">
<style type="text/css">
	.st0{fill-rule:evenodd;clip-rule:evenodd;fill:#FFFFFF;}
	.st1{fill-rule:evenodd;clip-rule:evenodd;fill:none;stroke:#FFFFFF;stroke-miterlimit:2.6131;}
	.st2{fill-rule:evenodd;clip-rule:evenodd;fill:#EC008C;}
</style>
<g>
	<polygon class="st0" points="223.9,14 214.7,24 223.3,24 228,18.5 232.8,24 241.4,24 232.2,14 239.8,5.5 231.3,5.5 228,9.4 
		224.7,5.5 216.4,5.5 	"/>
	<path class="st1" d="M206.6,10.6c2.7,0,4.2,1.9,4.2,4.2c0,2.3-1.5,4.1-4.2,4.1c-2.7,0-4.2-1.8-4.2-4.1
		C202.4,12.5,203.9,10.6,206.6,10.6L206.6,10.6z M206.6,4.9c-5.9,0-11.1,3.6-11.1,9.9c0,6.3,5.2,9.8,11.1,9.8
		c5.9,0,11.1-3.6,11.1-9.8C217.7,8.5,212.5,4.9,206.6,4.9z"/>
	<path class="st0" d="M180.6,4.8h0.5c1.9,0,4.1,0.1,4.1,2.3c0,2-1.9,2.3-3.8,2.3h-0.8V4.8L180.6,4.8z M184.4,24c5,0,9.8-1.7,9.8-6.7
		c0-3.3-1.7-5.7-5.5-6.1v-0.1c2.2-1,3-2.7,3-4.9c0-4.6-3.2-6.2-8.1-6.2h-10.1v24H184.4L184.4,24z M180.6,14.1h0.7
		c2.3,0,5.8-0.3,5.8,2.6c0,2.6-3.5,2.5-5.6,2.5h-0.9V14.1z"/>
	<path class="st0" d="M157.4,5.5h-6.5V24h6.5v-7.4c0-3.2,0.9-5.6,4.5-5.6c1,0,1.9,0.1,2.8,0.6V5.3h-1.3c-2.6,0-4.7,1-6,3.3h-0.1V5.5
		z"/>
	<path class="st0" d="M149.8,15.2c0-6.3-3.7-10.3-10.1-10.3c-6,0-10.2,3.7-10.2,9.9c0,6.4,4.6,9.8,10.7,9.8c2.1,0,4.2-0.5,5.9-1.5
		c1.7-1,3-2.6,3.5-4.8h-6.3c-0.7,1.2-1.7,1.7-3.1,1.7c-2.7,0-4.1-1.4-4.1-4.1h13.8V15.2L149.8,15.2z M136.2,12.1
		c0.4-1.9,2-2.9,3.9-2.9c1.8,0,3.4,1.2,3.7,2.9H136.2z"/>
	<rect x="122" y="0" class="st0" width="6.5" height="24"/>
	<path class="st0" d="M114,6.6V24h6.5V6.6c-0.8,0.9-2,1.5-3.3,1.5C116,8.1,114.8,7.5,114,6.6z"/>
	<path class="st0" d="M112.6,5.5h-6.5v1.8c-1.4-1.6-3.6-2.4-5.7-2.4c-5.5,0-9.2,4.5-9.2,9.8c0,5.3,3.9,9.9,9.3,9.9
		c2.2,0,4.4-0.8,5.6-2.7h0.1V24h6.5V5.5L112.6,5.5z M102.1,10.6c2.7,0,4.2,1.9,4.2,4.2c0,2.3-1.5,4.1-4.2,4.1
		c-2.7,0-4.2-1.8-4.2-4.1C97.9,12.5,99.4,10.6,102.1,10.6z"/>
	<polygon class="st0" points="64.1,24 71.1,24 71.1,8.4 71.2,8.4 75.1,24 77.9,24 82.3,8.4 82.4,8.4 82.3,24 89.4,24 89.4,0 78.8,0 
		76.6,11.4 73.8,0 64.1,0 	"/>
	<path class="st0" d="M54.6,15.2c0-6.3-3.7-10.3-10.1-10.3c-6,0-10.2,3.7-10.2,9.9c0,6.4,4.6,9.8,10.7,9.8c2.1,0,4.2-0.5,5.9-1.5
		c1.7-1,3-2.6,3.5-4.8H48c-0.7,1.2-1.7,1.7-3.1,1.7c-2.7,0-4.1-1.4-4.1-4.1h13.8V15.2L54.6,15.2z M40.9,12.1c0.4-1.9,2-2.9,3.9-2.9
		c1.8,0,3.4,1.2,3.7,2.9H40.9z"/>
	<path class="st0" d="M13.8,0v24h6.5v-9.5c0-2.2,0.8-4.4,3.4-4.4c2.6,0,3,2.2,3,4.4V24h6.5V12.7c0-4.7-2.3-7.8-6.9-7.8
		c-2.6,0-4.4,0.9-5.9,3h-0.1V0H13.8z"/>
	<polygon class="st0" points="9,10.9 12.7,10.9 12.7,5.5 9,5.5 9,0 2.4,0 2.4,2 2.4,5.5 2.4,10.9 2.4,18.1 2.4,24 9,24 	"/>
	<path class="st2" d="M117.3,0c-2,0-3.7,1.7-3.7,3.7s1.7,3.7,3.7,3.7c2,0,3.7-1.7,3.7-3.7S119.3,0,117.3,0z"/>
	<path class="st2" d="M198.8,24.7c4.8,4.5,10,4.4,15.6,0C208.9,27.4,203.7,27.6,198.8,24.7z"/>
	<path class="st0" d="M245.4,18.8c-1.4,0-2.6,1.2-2.6,2.6s1.2,2.6,2.6,2.6c1.4,0,2.6-1.2,2.6-2.6S246.9,18.8,245.4,18.8z"/>
	<path class="st2" d="M2.8,28.3h50.6c0.5,0,0.8,0.4,0.8,0.8v0c0,0.5-0.4,0.8-0.8,0.8H2.8C2.3,30,2,29.6,2,29.2v0
		C2,28.7,2.3,28.3,2.8,28.3z"/>
</g>
</svg>
