<svg width="200" height="38" viewBox="0 0 200 38" fill="none" xmlns="http://www.w3.org/2000/svg">
<path d="M58.4545 12.2285V32.0818H53.8599V23.9405H44.8407V32.0818H40.2461V12.2285H44.8407V20.0556H53.8599V12.2285H58.4545Z" fill="white"/>
<path d="M61.7148 24.4524C61.7148 19.8578 65.2597 16.5957 70.1093 16.5957C74.959 16.5957 78.478 19.8578 78.478 24.4524C78.478 29.047 74.9664 32.309 70.1093 32.309C65.2523 32.309 61.7148 29.047 61.7148 24.4524ZM73.9961 24.4524C73.9961 21.815 72.3216 20.2256 70.1149 20.2256C67.9081 20.2256 66.2023 21.815 66.2023 24.4524C66.2023 27.0897 67.9044 28.6773 70.1149 28.6773C72.3253 28.6773 73.9961 27.0897 73.9961 24.4524Z" fill="white"/>
<path d="M96.801 16.823V32.0817H92.6V30.2668C91.4375 31.5993 89.7353 32.309 87.8631 32.309C84.0355 32.309 81.3408 30.1522 81.3408 25.4448V16.823H85.7654V24.7924C85.7654 27.3448 86.9002 28.4796 88.8574 28.4796C90.8904 28.4796 92.369 27.1747 92.369 24.3673V16.823H96.801Z" fill="white"/>
<path d="M116.451 11.0325V32.0815H112.226V30.3221C111.117 31.6565 109.504 32.3089 107.461 32.3089C103.15 32.3089 99.832 29.2446 99.832 24.4522C99.832 19.6598 103.159 16.5955 107.461 16.5955C109.334 16.5955 110.921 17.1907 112.026 18.4437V11.0325H116.451ZM112.111 24.4485C112.111 21.8111 110.411 20.2217 108.23 20.2217C106.049 20.2217 104.316 21.8111 104.316 24.4485C104.316 27.0859 106.018 28.6735 108.23 28.6735C110.443 28.6735 112.111 27.0896 112.111 24.4522V24.4485Z" fill="white"/>
<path d="M119.996 12.2283C119.996 10.8385 121.105 9.76099 122.746 9.76099C124.387 9.76099 125.498 10.7812 125.498 12.1433C125.498 13.6219 124.389 14.6957 122.746 14.6957C121.103 14.6957 119.996 13.62 119.996 12.2283ZM120.535 16.8229H124.958V32.0816H120.535V16.8229Z" fill="white"/>
<path d="M144.669 23.3453V32.0817H140.246V24.0273C140.246 21.5599 139.112 20.4252 137.154 20.4252C135.027 20.4252 133.495 21.73 133.495 24.5374V32.0817H129.07V16.823H133.297V18.6102C134.487 17.3054 136.275 16.5957 138.345 16.5957C141.947 16.5957 144.669 18.6952 144.669 23.3453Z" fill="white"/>
<path d="M163.53 16.823L156.638 33.0261C155.159 36.7133 153.063 37.8203 150.313 37.8203C148.753 37.8203 147.051 37.3084 146.062 36.4305L147.68 33.2886C148.372 33.8934 149.255 34.235 150.175 34.2533C151.395 34.2533 152.075 33.7155 152.67 32.3534L152.727 32.2111L146.12 16.8396H150.685L154.967 27.1895L159.279 16.8396L163.53 16.823Z" fill="white"/>
<path d="M186.756 27.8271H177.539L175.78 32.0779H171.072L179.921 12.2246H184.459L193.33 32.0779H188.516L186.756 27.8271ZM185.309 24.3395L182.167 16.7397L179.025 24.3395H185.309Z" fill="url(#paint0_linear_725_1123)"/>
<path d="M195.406 12.2285H200V32.0818H195.406V12.2285Z" fill="url(#paint1_linear_725_1123)"/>
<path d="M7.84472 31.2345C7.55825 29.8059 7.27732 28.3902 6.97791 26.8894C6.79309 27.0484 6.67665 27.1371 6.56946 27.2314C5.22952 28.3865 3.88219 29.5342 2.55519 30.706C2.4167 30.8508 2.23284 30.9439 2.03414 30.9697C1.83545 30.9956 1.63388 30.9528 1.46291 30.8483C0.884873 30.5624 0.413876 30.0986 0.119269 29.525C-0.0895766 29.111 -0.0285876 28.8799 0.337355 28.6009L5.39401 24.6328L5.83388 24.2798C5.59177 23.8381 5.36444 23.3908 5.10754 22.962C4.58081 22.0841 3.99863 21.2377 3.5181 20.3339C3.22209 19.7155 2.98449 19.0707 2.80839 18.4081C2.70489 18.0736 2.86199 17.776 3.11519 17.5117C5.9762 14.5398 9.47113 12.7378 13.4762 11.8858C15.8732 11.3704 18.3475 11.3252 20.7617 11.7527L7.91495 22.5185L7.96485 22.5924C8.06835 22.5185 8.1737 22.4464 8.2735 22.3688L28.2525 6.69977C28.4613 6.53344 28.696 6.29687 28.9529 6.50017C29.1675 6.66662 29.3134 6.90599 29.3632 7.17291C29.3538 7.29881 29.3195 7.42159 29.2624 7.53419C29.2053 7.6468 29.1265 7.74699 29.0306 7.82902C27.199 9.4351 25.373 11.0467 23.486 12.5974C22.8095 13.1518 22.475 13.6749 22.5619 14.6304C22.7652 16.8131 22.7208 19.0291 23.34 21.1526C23.6856 22.3336 24.216 23.461 24.6633 24.6125C24.7058 24.7197 24.7446 24.8287 24.7686 24.8897L17.2927 27.5382L17.3333 27.6786C17.4202 27.6583 17.5089 27.6435 17.5958 27.6176C20.5769 26.7619 23.5839 26.0263 26.6686 25.6475C28.1748 25.4626 29.6885 25.3037 31.2003 25.6031C31.4475 25.6517 31.6869 25.7338 31.9119 25.8471C32.4368 26.1095 32.5976 26.5475 32.2686 27.0336C31.969 27.4705 31.6101 27.8636 31.2022 28.2017C30.0156 29.183 28.6628 29.9038 27.2822 30.5655C22.1202 33.0365 16.7086 34.7554 11.1105 35.9049C9.06267 36.3245 6.99824 36.6571 4.89869 36.6128C4.27515 36.6048 3.65476 36.5229 3.0505 36.3688C2.10053 36.1193 1.89539 35.4798 2.52562 34.7332C2.91312 34.2596 3.36982 33.8471 3.88034 33.5097C5.03546 32.7704 6.24233 32.1291 7.42887 31.4471C7.55085 31.3805 7.68207 31.3196 7.84472 31.2345ZM6.82451 35.6702V35.6998C7.16827 35.6647 7.51389 35.6388 7.8558 35.5926C8.29013 35.5353 8.7263 35.4761 9.14954 35.3893C14.6836 34.279 20.0984 32.6401 25.3194 30.4953C26.4994 29.9798 27.6529 29.4055 28.7755 28.7746C28.9917 28.66 29.1156 28.3717 29.2819 28.1628C29.0306 28.0815 28.7718 27.9115 28.5279 27.9337C27.5362 27.9971 26.549 28.1162 25.5707 28.2904C20.4489 29.3422 15.43 30.8444 10.5727 32.7796C9.36393 33.2565 8.19218 33.8331 7.01488 34.3913C6.6626 34.5776 6.33061 34.7999 6.02425 35.0548C5.91336 35.1398 5.87084 35.3135 5.79691 35.4484C5.93366 35.5386 6.08152 35.6107 6.23678 35.6628C6.43206 35.6832 6.62879 35.6857 6.82451 35.6702Z" fill="url(#paint2_linear_725_1123)"/>
<path d="M30.9878 11.2834L30.9342 12.8119L32.1633 13.7212L30.694 14.1445L30.2098 15.5934L29.354 14.3274L27.8237 14.3126L28.7645 13.1076L28.3061 11.6494L29.7422 12.1724L30.9878 11.2834Z" fill="url(#paint3_linear_725_1123)"/>
<path d="M35.9538 3.66895L35.8688 6.11411L37.8371 7.57048L35.4844 8.24692L34.7081 10.5664L33.3386 8.53894L30.8916 8.51676L32.3979 6.58724L31.6623 4.25482L33.9614 5.09021L35.9538 3.66895Z" fill="url(#paint4_linear_725_1123)"/>
<path d="M27.1659 0L28.2083 1.30852L29.879 1.19208L28.9568 2.58932L29.5852 4.13995L27.9698 3.69454L26.689 4.77204L26.6133 3.09942L25.1938 2.21229L26.7611 1.62456L27.1659 0Z" fill="url(#paint5_linear_725_1123)"/>
<path d="M21.8042 3.51904L22.0888 4.87931L23.3714 5.41529L22.1664 6.10836L22.0537 7.49266L21.0224 6.55932L19.6695 6.88091L20.2388 5.61305L19.5161 4.42466L20.8986 4.57436L21.8042 3.51904Z" fill="url(#paint6_linear_725_1123)"/>
<defs>
<linearGradient id="paint0_linear_725_1123" x1="182.201" y1="12.2246" x2="182.201" y2="32.0779" gradientUnits="userSpaceOnUse">
<stop stop-color="#1EDCE3"/>
<stop offset="1" stop-color="#2783EC"/>
</linearGradient>
<linearGradient id="paint1_linear_725_1123" x1="197.703" y1="12.2285" x2="197.703" y2="32.0818" gradientUnits="userSpaceOnUse">
<stop stop-color="#1EDCE3"/>
<stop offset="1" stop-color="#2783EC"/>
</linearGradient>
<linearGradient id="paint2_linear_725_1123" x1="16.2197" y1="6.42163" x2="16.2197" y2="36.6168" gradientUnits="userSpaceOnUse">
<stop stop-color="#1EDCE3"/>
<stop offset="1" stop-color="#2783EC"/>
</linearGradient>
<linearGradient id="paint3_linear_725_1123" x1="29.9935" y1="11.2834" x2="29.9935" y2="15.5934" gradientUnits="userSpaceOnUse">
<stop stop-color="#1EDCE3"/>
<stop offset="1" stop-color="#2783EC"/>
</linearGradient>
<linearGradient id="paint4_linear_725_1123" x1="34.3644" y1="3.66895" x2="34.3644" y2="10.5664" gradientUnits="userSpaceOnUse">
<stop stop-color="#1EDCE3"/>
<stop offset="1" stop-color="#2783EC"/>
</linearGradient>
<linearGradient id="paint5_linear_725_1123" x1="27.5364" y1="0" x2="27.5364" y2="4.77204" gradientUnits="userSpaceOnUse">
<stop stop-color="#1EDCE3"/>
<stop offset="1" stop-color="#2783EC"/>
</linearGradient>
<linearGradient id="paint6_linear_725_1123" x1="21.4438" y1="3.51904" x2="21.4438" y2="7.49266" gradientUnits="userSpaceOnUse">
<stop stop-color="#1EDCE3"/>
<stop offset="1" stop-color="#2783EC"/>
</linearGradient>
</defs>
</svg>
