<svg width="227" height="28" viewBox="0 0 227 28" fill="none" xmlns="http://www.w3.org/2000/svg">
<g clip-path="url(#clip0_355_67)">
<path fill-rule="evenodd" clip-rule="evenodd" d="M204.37 12.89L195.89 22.1H203.81L208.18 17.07L212.56 22.1H220.48L211.99 12.89L219.02 5.10001H211.23L208.18 8.62001L205.13 5.10001H197.48L204.37 12.89Z" fill="#051343"/>
<path fill-rule="evenodd" clip-rule="evenodd" d="M188.44 9.77999C190.89 9.77999 192.32 11.54 192.32 13.62C192.32 15.7 190.9 17.43 188.44 17.43C185.98 17.43 184.56 15.77 184.56 13.62C184.56 11.47 185.98 9.77999 188.44 9.77999ZM188.44 4.53999C182.97 4.53999 178.2 7.81999 178.2 13.62C178.2 19.42 183.01 22.67 188.44 22.67C193.87 22.67 198.68 19.39 198.68 13.62C198.68 7.84999 193.91 4.53999 188.44 4.53999Z" fill="white" stroke="#051343" stroke-width="1.5" stroke-miterlimit="2.61"/>
<path fill-rule="evenodd" clip-rule="evenodd" d="M164.51 4.40001H164.97C166.73 4.40001 168.75 4.52001 168.75 6.54001C168.75 8.42001 166.96 8.68001 165.24 8.68001H164.51V4.40001ZM168.02 22.1C172.59 22.1 177.07 20.58 177.07 15.94C177.07 12.86 175.55 10.72 171.97 10.31V10.25C173.99 9.34001 174.72 7.73001 174.72 5.74001C174.72 1.52001 171.74 -0.00999451 167.3 -0.00999451H158.02V22.09H168.03L168.02 22.1ZM164.51 12.96H165.17C167.29 12.96 170.51 12.7 170.51 15.36C170.51 17.79 167.26 17.71 165.34 17.71H164.51V12.96Z" fill="#051343"/>
<path fill-rule="evenodd" clip-rule="evenodd" d="M143.17 5.1H137.14V22.1H143.17V15.24C143.17 12.32 144 10.1 147.35 10.1C148.28 10.1 149.07 10.2 149.9 10.66V4.86H148.74C146.39 4.86 144.4 5.79 143.24 7.88H143.17V5.1Z" fill="#051343"/>
<path fill-rule="evenodd" clip-rule="evenodd" d="M136.19 13.98C136.19 8.17999 132.78 4.53999 126.88 4.53999C121.35 4.53999 117.47 7.94999 117.47 13.62C117.47 19.29 121.68 22.67 127.31 22.67C129.27 22.67 131.19 22.21 132.74 21.25C134.3 20.29 135.49 18.83 135.95 16.84H130.15C129.49 17.97 128.56 18.4 127.27 18.4C124.78 18.4 123.49 17.07 123.49 14.62H136.18V13.99L136.19 13.98ZM123.6 11.13C123.96 9.36999 125.42 8.44999 127.18 8.44999C128.8 8.44999 130.3 9.50999 130.59 11.13H123.6Z" fill="#051343"/>
<path d="M116.55 0H110.52V22.1H116.55V0Z" fill="#051343"/>
<path fill-rule="evenodd" clip-rule="evenodd" d="M103.22 6.05V22.1H109.25V6.05C108.51 6.89 107.43 7.42 106.23 7.42C105.03 7.42 103.96 6.89 103.21 6.05H103.22Z" fill="#051343"/>
<path fill-rule="evenodd" clip-rule="evenodd" d="M101.91 5.09999H95.8798V6.75999C94.6198 5.26999 92.5698 4.53999 90.6098 4.53999C85.5698 4.53999 82.0898 8.71999 82.0898 13.59C82.0898 18.46 85.6398 22.67 90.6698 22.67C92.6598 22.67 94.7498 21.91 95.8098 20.22H95.8798V22.11H101.91V5.09999ZM92.1998 9.77999C94.6498 9.77999 96.0798 11.54 96.0798 13.62C96.0798 15.7 94.6498 17.43 92.1998 17.43C89.7498 17.43 88.3198 15.77 88.3198 13.62C88.3198 11.47 89.7498 9.77999 92.1998 9.77999Z" fill="#051343"/>
<path fill-rule="evenodd" clip-rule="evenodd" d="M57.23 22.1H63.69V7.72H63.76L67.34 22.1H69.92L74 7.72H74.07L74.03 22.1H80.53V0H70.77L68.7 10.47L66.2 0H57.23V22.1Z" fill="#051343"/>
<path fill-rule="evenodd" clip-rule="evenodd" d="M48.47 13.98C48.47 8.17999 45.06 4.53999 39.16 4.53999C33.63 4.53999 29.75 7.94999 29.75 13.62C29.75 19.29 33.96 22.67 39.59 22.67C41.55 22.67 43.47 22.21 45.02 21.25C46.58 20.29 47.77 18.83 48.23 16.84H42.43C41.77 17.97 40.84 18.4 39.55 18.4C37.06 18.4 35.77 17.07 35.77 14.62H48.46V13.99L48.47 13.98ZM35.87 11.13C36.23 9.36999 37.69 8.44999 39.45 8.44999C41.07 8.44999 42.57 9.50999 42.86 11.13H35.87Z" fill="#051343"/>
<path fill-rule="evenodd" clip-rule="evenodd" d="M10.8999 0V22.1H16.9299V13.38C16.9299 11.39 17.6899 9.34 20.0799 9.34C22.4699 9.34 22.7999 11.39 22.7999 13.38V22.1H28.8299V11.69C28.8299 7.38 26.7399 4.53 22.4299 4.53C20.0799 4.53 18.3899 5.39 16.9999 7.25H16.9299V0H10.8999Z" fill="#051343"/>
<path fill-rule="evenodd" clip-rule="evenodd" d="M6.46018 10.07H9.88018V5.1H6.46018V0H0.430176V1.89V5.1V10.07V16.71V22.1H6.46018V10.07Z" fill="#051343"/>
<path fill-rule="evenodd" clip-rule="evenodd" d="M106.23 0C104.37 0 102.85 1.52 102.85 3.38C102.85 5.24 104.37 6.76 106.23 6.76C108.09 6.76 109.61 5.24 109.61 3.38C109.61 1.52 108.09 0 106.23 0Z" fill="#EB008B"/>
<path fill-rule="evenodd" clip-rule="evenodd" d="M181.24 22.7C185.65 26.81 190.46 26.79 195.64 22.7C190.62 25.26 185.81 25.39 181.24 22.7Z" fill="#EB008B"/>
<path fill-rule="evenodd" clip-rule="evenodd" d="M224.21 17.28C222.89 17.28 221.8 18.37 221.8 19.69C221.8 21.01 222.89 22.1 224.21 22.1C225.53 22.1 226.62 21.01 226.62 19.69C226.62 18.37 225.53 17.28 224.21 17.28Z" fill="#051343"/>
<path d="M47.36 26.06H0.78C0.349218 26.06 0 26.4092 0 26.84C0 27.2708 0.349218 27.62 0.78 27.62H47.36C47.7908 27.62 48.14 27.2708 48.14 26.84C48.14 26.4092 47.7908 26.06 47.36 26.06Z" fill="#EB008B"/>
</g>
<defs>
<clipPath id="clip0_355_67">
<rect width="226.63" height="27.63" fill="white"/>
</clipPath>
</defs>
</svg>
