<svg width="196" height="158" viewBox="0 0 196 158" fill="none" xmlns="http://www.w3.org/2000/svg">
<g clip-path="url(#clip0_284_4473)">
<path d="M58.3285 63.7762C58.3285 63.7762 53.5759 70.2343 51.9465 81.4394C50.3171 92.6445 52.066 118.889 59.8982 124.891L57.2422 112.632L65.0852 91.0802C65.0852 91.0802 67.3501 78.2131 67.3501 77.746C67.3501 77.2789 67.1546 63.8469 58.3285 63.7762Z" fill="#282020" stroke="#282020" stroke-width="0.977664" stroke-linecap="round" stroke-linejoin="round"/>
<path d="M46.8193 58.5295C46.2348 58.4676 45.6441 58.5555 45.1029 58.7848C44.8359 58.9061 44.6136 59.1081 44.4674 59.3624C44.3212 59.6168 44.2586 59.9105 44.2882 60.2024C44.3783 60.5429 44.5673 60.8491 44.8314 61.0823C46.3685 62.614 48.6334 63.0811 50.806 63.4613C51.18 63.545 51.5645 63.5725 51.9466 63.5427C52.3692 63.4703 52.7546 63.256 53.039 62.9351C53.3234 62.6141 53.4898 62.2058 53.5109 61.7775C53.5109 60.4902 52.2182 59.8874 51.2025 59.48C49.8051 58.9195 48.3233 58.5982 46.8193 58.5295Z" fill="white"/>
<path d="M46.8193 58.5295C46.2348 58.4676 45.6441 58.5555 45.1029 58.7848C44.8359 58.9061 44.6136 59.1081 44.4674 59.3624C44.3212 59.6168 44.2586 59.9105 44.2882 60.2024C44.3783 60.5429 44.5673 60.8491 44.8314 61.0823C46.3685 62.614 48.6334 63.0811 50.806 63.4613C51.18 63.545 51.5645 63.5725 51.9466 63.5427C52.3692 63.4703 52.7546 63.256 53.039 62.9351C53.3234 62.6141 53.4898 62.2058 53.5109 61.7775C53.5109 60.4902 52.2182 59.8874 51.2025 59.48C49.8051 58.9195 48.3233 58.5982 46.8193 58.5295Z" stroke="#282020" stroke-width="0.977664" stroke-linecap="round" stroke-linejoin="round"/>
<path d="M61.0335 75.72C60.9829 75.6906 60.9392 75.6506 60.9055 75.6028C60.8718 75.555 60.8487 75.5005 60.8379 75.443C60.8246 75.3858 60.823 75.3264 60.8333 75.2685C60.8435 75.2107 60.8654 75.1555 60.8977 75.1063C61.7721 73.819 61.5386 72.0864 61.0226 70.8969C60.3635 69.5693 59.5064 68.3496 58.4807 67.2795L58.3123 67.084C57.1934 65.7913 56.1397 64.4932 55.5965 62.9181L55.5585 62.7986C55.3087 62.0599 55.086 61.4733 54.7058 61.2941C54.6443 61.2646 54.5781 61.2462 54.5103 61.2397C54.3715 61.2438 54.2359 61.2822 54.1156 61.3514C53.9952 61.4205 53.8938 61.5184 53.8205 61.6362C53.1923 61.9954 52.7215 62.5767 52.5006 63.2657C52.5006 63.2657 48.3836 62.1414 47.4548 64.7105C46.526 67.2795 47.4548 67.3664 47.4548 67.3664C47.1768 67.3627 46.9067 67.4587 46.6934 67.6371C46.4801 67.8155 46.3379 68.0644 46.2924 68.3387C46.2573 69.1922 46.4093 70.0432 46.7378 70.8317C46.7378 70.8317 44.6087 71.1739 45.1953 73.0532C45.7819 74.9325 46.6292 76.5076 50.2085 76.79C50.2085 76.79 49.7523 83.5305 57.2694 82.7647L58.8228 83.6989L62.69 76.7629L61.0335 75.72Z" fill="white"/>
<path d="M52.5222 63.5481C51.744 63.3419 50.9429 63.2342 50.1378 63.2276C49.3241 63.2214 48.5375 63.5197 47.9326 64.0641C47.504 64.5442 47.2422 65.1502 47.1864 65.7914C47.1306 66.4326 47.2838 67.0747 47.6231 67.6217C47.9765 68.1594 48.4357 68.6197 48.9726 68.9745C49.5094 69.3293 50.1129 69.5713 50.7461 69.6857C51.3229 69.8515 51.9346 69.8515 52.5114 69.6857C52.7961 69.5949 53.0493 69.4253 53.2416 69.1965C53.4339 68.9677 53.5573 68.6891 53.5977 68.393C53.5939 67.9089 53.3986 67.4461 53.0545 67.1057C52.691 66.7121 52.263 66.3833 51.789 66.1335" stroke="#282020" stroke-width="0.977664" stroke-linecap="round" stroke-linejoin="round"/>
<path d="M47.3243 67.3502C46.9791 67.4978 46.6851 67.7441 46.4793 68.0581C46.2735 68.3722 46.165 68.74 46.1674 69.1154C46.1746 69.4968 46.257 69.8731 46.4099 70.2226C46.5627 70.5721 46.783 70.888 47.0582 71.1522C47.6153 71.665 48.2614 72.0718 48.9646 72.3526C49.5349 72.6331 50.1552 72.7974 50.7896 72.836C51.1054 72.8502 51.4204 72.792 51.7103 72.6658C52.0002 72.5397 52.2575 72.3489 52.4625 72.1082C52.6945 71.7764 52.7946 71.37 52.7434 70.9684C52.6922 70.5668 52.4933 70.1986 52.1855 69.9356" stroke="#282020" stroke-width="0.977664" stroke-linecap="round" stroke-linejoin="round"/>
<path d="M46.9062 71.2499C46.7679 71.1801 46.617 71.1388 46.4624 71.1283C46.3079 71.1179 46.1528 71.1387 46.0064 71.1893C45.86 71.24 45.7253 71.3195 45.6102 71.4232C45.4951 71.527 45.402 71.6527 45.3365 71.7931C45.2207 72.0877 45.1681 72.4034 45.1822 72.7197C45.1962 73.0359 45.2765 73.3457 45.418 73.6289C45.7698 74.3782 46.2954 75.0327 46.951 75.5381C47.6065 76.0435 48.3733 76.3851 49.1874 76.5348C49.5554 76.624 49.9373 76.6406 50.3117 76.5836C50.695 76.5089 51.0477 76.3227 51.3255 76.0483C51.6033 75.7739 51.7939 75.4236 51.8734 75.0413C51.9529 74.659 51.9177 74.2617 51.7722 73.8993C51.6268 73.5369 51.3776 73.2256 51.0558 73.0043" stroke="#282020" stroke-width="0.977664" stroke-linecap="round" stroke-linejoin="round"/>
<path d="M50.5127 76.6705C50.3648 77.5331 50.4494 78.4195 50.7577 79.2386C51.0661 80.0577 51.5871 80.7798 52.2671 81.3307C53.6512 82.4125 55.3357 83.0404 57.0902 83.1285" stroke="#282020" stroke-width="0.977664" stroke-linecap="round" stroke-linejoin="round"/>
<path d="M57.0304 78.5172C56.2863 77.2788 55.4879 76.1165 55.162 74.6826C54.8361 73.2487 55.1131 71.918 55.162 70.484C55.162 70.3102 54.9122 70.1744 54.7927 70.3265C52.8482 72.8304 54.7546 76.8443 56.7969 78.7073C56.9272 78.8268 57.1445 78.6747 57.0467 78.5172H57.0304Z" fill="#282020"/>
<path d="M49.5893 65.5414C50.0337 65.7994 50.5009 66.0158 50.9852 66.1877C51.4256 66.4183 51.8391 66.697 52.2181 67.0188C52.5548 67.2686 52.9188 66.8015 52.7612 66.4756C52.2181 65.4871 50.6701 65.2916 49.6816 65.1992C49.4915 65.1992 49.4589 65.4436 49.5947 65.536L49.5893 65.5414Z" fill="#282020"/>
<path d="M51.2785 77.7732C51.6499 76.9413 52.1503 76.1732 52.7613 75.4974C53.413 74.9442 54.0948 74.4274 54.8035 73.9494C54.9719 73.8136 54.8035 73.5964 54.6134 73.6235C52.8645 73.9223 51.3545 76.0623 50.9798 77.6754C50.9417 77.8492 51.1916 77.9796 51.2785 77.8003V77.7732Z" fill="#282020"/>
<path d="M59.366 77.2355C60.6424 76.562 62.4402 75.2204 62.3153 73.5584C62.3135 73.4786 62.286 73.4015 62.2368 73.3386C62.1876 73.2758 62.1193 73.2306 62.0422 73.2098C61.9652 73.189 61.8834 73.1937 61.8093 73.2233C61.7351 73.2528 61.6725 73.3056 61.6309 73.3737C61.2507 73.9168 61.0878 74.6175 60.7021 75.1932C60.2444 75.8313 59.6954 76.3986 59.0727 76.877C58.8663 77.0508 59.127 77.3495 59.3443 77.2355H59.366Z" fill="#282020"/>
<path d="M53.0166 61.9186C53.2274 61.4922 53.5342 61.1204 53.9128 60.8324L24.4417 30.8344L21.7259 33.751L52.5712 63.2711C52.657 62.802 52.8069 62.3469 53.0166 61.9186Z" fill="white"/>
<path d="M56.5742 63.6079C56.911 65.0038 59.0455 67.1764 59.9363 68.2681C60.5048 68.9246 60.9985 69.6424 61.4082 70.4081C61.7026 70.9807 61.8868 71.6034 61.9514 72.2439L63.5808 73.7973L64.5911 71.7062L56.5742 63.6079Z" fill="white"/>
<path d="M53.0166 61.9186C53.2274 61.4922 53.5342 61.1204 53.9128 60.8324L24.4417 30.8344L21.7259 33.751L52.5712 63.2711C52.657 62.802 52.8069 62.3469 53.0166 61.9186Z" stroke="#282020" stroke-width="0.977664" stroke-linecap="round" stroke-linejoin="round"/>
<path d="M56.5742 63.6079C56.911 65.0038 59.0455 67.1764 59.9363 68.2681C60.5048 68.9246 60.9985 69.6424 61.4082 70.4081C61.7026 70.9807 61.8868 71.6034 61.9514 72.2439L63.5808 73.7973L64.5911 71.7062L56.5742 63.6079Z" stroke="#282020" stroke-width="0.977664" stroke-linecap="round" stroke-linejoin="round"/>
<path d="M99.8305 67.6706C99.8305 67.6706 89.5107 67.7684 80.8203 82.4116C78.0049 78.3816 74.3157 75.0396 70.028 72.635C70.028 72.635 68.3985 68.2463 65.0799 67.4044C64.5008 66.1486 63.5291 65.115 62.3114 64.4596C61.0936 63.8042 59.6958 63.5624 58.3286 63.7708C58.3286 63.7708 64.0425 66.7201 64.1946 74.9868C64.3467 83.2535 55.3087 93.0953 55.5857 107.706C55.8627 122.317 59.8983 124.864 59.8983 124.864C59.8983 124.864 60.8597 117.716 64.6182 115.772C68.3768 113.827 88.4624 119.786 95.1268 97.913L99.8305 67.6706Z" fill="url(#paint0_linear_284_4473)"/>
<path d="M78.7128 91.6994C75.1063 89.4562 71.6519 87.0175 68.2301 84.519C70.7123 83.8781 73.1781 83.1992 75.6223 82.455C75.692 82.4348 75.7543 82.3948 75.8017 82.3399C75.8491 82.285 75.8795 82.2175 75.8893 82.1456C75.8991 82.0737 75.8878 82.0006 75.8568 81.935C75.8258 81.8694 75.7764 81.8142 75.7146 81.7761C74.3857 81.0941 73.1284 80.2807 71.9615 79.3482C70.9838 78.5444 70.1745 77.5939 69.2458 76.7303C70.823 76.499 72.3861 76.1799 73.9277 75.7743C74.3351 75.6766 74.1667 75.052 73.7593 75.1443C72.1392 75.4616 70.5423 75.888 68.9796 76.4207C68.9796 76.4207 68.9796 76.4207 68.9416 76.4533C68.8842 76.4354 68.8228 76.4352 68.7653 76.4528C68.7078 76.4704 68.657 76.5049 68.6195 76.5519C68.5819 76.5988 68.5594 76.656 68.5549 76.7159C68.5503 76.7758 68.564 76.8357 68.594 76.8878C69.8975 79.0604 72.3037 80.8365 74.5686 82.0314C72.396 82.7755 70.2506 83.4762 68.0508 84.1116C68.0107 84.1215 67.9746 84.1434 67.9473 84.1745C67.9201 84.2056 67.9032 84.2444 67.8988 84.2854L67.7575 84.1823C67.4642 83.965 67.0732 84.4647 67.3665 84.6928C70.6527 87.2274 74.0722 89.5844 77.6102 91.7537C72.872 92.2905 68.2095 93.36 63.7111 94.942C63.6592 94.9616 63.6163 94.9995 63.5903 95.0484C63.5643 95.0974 63.5571 95.1542 63.5699 95.2081C63.5047 95.2733 63.4721 95.3765 63.5699 95.4417C66.0955 97.4676 69.8215 98.228 73.0424 98.9776C69.6531 99.7977 66.2259 100.553 62.9018 101.59C62.8471 101.605 62.8006 101.641 62.7726 101.691C62.7446 101.74 62.7373 101.799 62.7524 101.854C62.7676 101.908 62.8038 101.955 62.8532 101.983C62.9026 102.011 62.9611 102.018 63.0159 102.003H63.1082C63.1167 102.035 63.1324 102.065 63.154 102.09C63.1756 102.116 63.2027 102.136 63.2331 102.15C66.0901 103.556 69.0665 104.757 71.9995 106.011C68.0345 106.81 63.9555 107.581 60.6912 110.074C60.6458 110.083 60.6031 110.103 60.5664 110.131C60.5297 110.159 60.4999 110.196 60.4794 110.237L60.349 110.335C60.1535 110.498 60.4088 110.84 60.6206 110.699C60.6584 110.722 60.7005 110.737 60.7444 110.744C60.7882 110.75 60.8329 110.748 60.8759 110.737C63.0485 110.194 65.2482 109.71 67.4697 109.319C67.9639 109.232 68.4528 109.14 68.947 109.064C69.4413 108.988 70.5765 108.472 70.2071 109.064C69.8378 109.656 68.3822 110.253 67.7956 110.693C65.0953 112.646 62.9986 115.318 61.7449 118.406C61.6417 118.667 62.0545 118.77 62.1577 118.52C63.0828 116.37 64.4249 114.424 66.1064 112.795C67.5783 111.334 69.3109 109.607 71.1848 108.716C71.2094 108.699 71.2281 108.675 71.2384 108.646C71.2487 108.618 71.2501 108.588 71.2424 108.558C71.2347 108.529 71.2183 108.503 71.1954 108.484C71.1724 108.465 71.1441 108.453 71.1142 108.45C68.0989 108.527 65.1027 108.951 62.1849 109.716C65.5361 107.836 69.3816 107.228 73.1456 106.457C73.2051 106.439 73.2583 106.405 73.2986 106.358C73.339 106.31 73.3647 106.252 73.3728 106.191C73.3808 106.129 73.3708 106.067 73.344 106.011C73.3172 105.955 73.2746 105.908 73.2216 105.876C70.1257 104.534 67.0515 103.095 63.9012 101.878C67.4425 101.172 70.9621 100.189 74.4383 99.3198C74.5016 99.3003 74.5571 99.2611 74.5965 99.2078C74.6359 99.1545 74.6572 99.09 74.6572 99.0237C74.6572 98.9575 74.6359 98.8929 74.5965 98.8397C74.5571 98.7864 74.5016 98.7471 74.4383 98.7277C72.6078 98.2661 70.7774 97.8044 68.9796 97.2178C67.3502 96.6746 65.7751 95.8708 64.1293 95.3385C68.8619 94.0077 73.68 93.0023 78.5499 92.3295C78.6316 92.3458 78.7164 92.3303 78.787 92.286C78.8576 92.2418 78.9086 92.1722 78.9294 92.0915C78.9503 92.0109 78.9395 91.9253 78.8992 91.8524C78.8589 91.7794 78.7922 91.7247 78.7128 91.6994Z" fill="white"/>
<path d="M99.8305 67.6706C99.8305 67.6706 89.5107 67.7684 80.8203 82.4116C78.0049 78.3816 74.3157 75.0396 70.028 72.635C70.028 72.635 68.3985 68.2463 65.0799 67.4044C64.5008 66.1486 63.5291 65.115 62.3114 64.4596C61.0936 63.8042 59.6958 63.5624 58.3286 63.7708C58.3286 63.7708 64.0425 66.7201 64.1946 74.9868C64.3467 83.2535 55.3087 93.0953 55.5857 107.706C55.8627 122.317 59.8983 124.864 59.8983 124.864C59.8983 124.864 60.8597 117.716 64.6182 115.772C68.3768 113.827 88.4624 119.786 95.1268 97.913L99.8305 67.6706Z" stroke="#282020" stroke-width="0.977664" stroke-linecap="round" stroke-linejoin="round"/>
<path d="M71.364 82.5963C71.8583 78.4738 72.0864 73.026 68.9796 69.778C68.9263 69.706 68.8466 69.6581 68.758 69.6448C68.6693 69.6316 68.5791 69.6541 68.5071 69.7074C68.435 69.7607 68.3871 69.8404 68.3739 69.929C68.3606 70.0176 68.3832 70.1079 68.4364 70.1799C70.609 74.3241 70.8372 77.9958 70.8806 82.5963C70.8891 82.6514 70.917 82.7017 70.9594 82.738C71.0017 82.7743 71.0557 82.7943 71.1114 82.7943C71.1672 82.7943 71.2212 82.7743 71.2635 82.738C71.3059 82.7017 71.3338 82.6514 71.3423 82.5963H71.364Z" fill="#282020"/>
<path d="M83.3349 90.6457C83.6011 87.2511 83.2263 83.6554 80.4291 81.3036C80.2227 81.1298 79.8534 81.3036 79.9457 81.5806C80.3748 82.9331 81.4122 83.9596 82.0042 85.2469C82.7918 86.9415 82.8678 88.8045 82.9439 90.6457C82.9439 90.6976 82.9645 90.7473 83.0011 90.784C83.0378 90.8207 83.0875 90.8413 83.1394 90.8413C83.1913 90.8413 83.241 90.8207 83.2777 90.784C83.3143 90.7473 83.3349 90.6976 83.3349 90.6457Z" fill="#282020"/>
<path d="M86.5179 87.1316C86.1011 85.8601 85.4073 84.6969 84.4865 83.726C83.6284 82.8244 82.3683 81.7761 81.1299 81.5208C81.0431 81.5023 80.9526 81.5147 80.874 81.5559C80.7954 81.597 80.7337 81.6644 80.6996 81.7462C80.6654 81.8281 80.6609 81.9193 80.6869 82.0042C80.713 82.089 80.7678 82.162 80.842 82.2106C81.8468 82.9548 82.9494 83.449 83.8836 84.3289C84.7839 85.1954 85.5525 86.1891 86.1649 87.2782C86.2735 87.4629 86.5885 87.3379 86.5179 87.1316Z" fill="#282020"/>
<path d="M65.5742 80.4509C67.7902 76.0514 67.1059 70.6362 64.6074 66.4703C64.4336 66.1878 63.9176 66.3725 64.0642 66.7093C65.8946 71.3097 67.0516 75.3996 65.1831 80.2879C65.0962 80.5269 65.4764 80.6844 65.5905 80.4617L65.5742 80.4509Z" fill="#282020"/>
<path d="M59.2519 119.672C58.5023 113.013 57.2965 106.457 58.4426 99.7598C59.0353 96.5728 60.0949 93.4908 61.5874 90.6132C62.8258 88.093 64.238 85.5836 64.6996 82.781C64.709 82.7179 64.6949 82.6535 64.66 82.6C64.6251 82.5466 64.5717 82.5078 64.5101 82.4911C64.4485 82.4743 64.3829 82.4808 64.3257 82.5092C64.2685 82.5376 64.2238 82.586 64.1999 82.6452C62.0273 88.886 58.3665 94.274 57.4866 100.944C56.6719 107.147 57.3943 113.681 58.9803 119.71C59.0183 119.856 59.2682 119.829 59.2519 119.672Z" fill="#282020"/>
<path d="M71.2391 111.448C69.0302 112.066 66.9535 113.084 65.1124 114.452C63.5971 115.538 61.9513 116.831 61.6309 118.797C61.6183 118.842 61.6224 118.889 61.6425 118.931C61.6626 118.973 61.6972 119.006 61.7399 119.024C61.7826 119.042 61.8304 119.044 61.8744 119.029C61.9183 119.014 61.9553 118.984 61.9785 118.944C64.1076 115.435 67.7902 113.512 71.4021 111.856C71.6302 111.752 71.4673 111.405 71.2391 111.465V111.448Z" fill="#282020"/>
<path d="M87.2621 100.303C68.9906 133.918 65.4004 172.541 62.5435 210.697C64.879 210.697 66.3455 211.05 68.6864 211.05H177.495C166.203 203.771 157.227 193.416 151.625 181.205C148.969 175.301 147.16 169.065 145.357 162.846C140.958 147.671 136.515 131.843 139.252 116.282C140.767 107.679 135.597 98.4072 127.993 94.1055C124.479 92.1121 120.389 91.5038 116.353 91.091C112.317 90.6782 108.271 90.4175 104.214 90.3252C102.253 90.2817 100.249 90.2817 98.3857 90.8683C93.9645 92.3348 89.4835 96.2129 87.2621 100.303Z" fill="url(#paint1_linear_284_4473)"/>
<path d="M83.1559 108.466C68.4366 140.203 65.1777 175.594 62.5435 210.698C64.879 210.698 66.3455 211.051 68.6864 211.051H177.495C166.203 203.771 157.227 193.416 151.625 181.205C148.969 175.301 147.16 169.065 145.357 162.846C142.305 152.32 139.236 141.484 138.551 130.632" stroke="#282020" stroke-width="0.977664" stroke-linecap="round" stroke-linejoin="round"/>
<path d="M85.8497 102.622C84.8596 103.739 84.0662 105.015 83.5034 106.397C82.7277 108.029 82.0671 109.713 81.5263 111.437C81.5161 111.479 81.5196 111.523 81.5364 111.563C81.5531 111.603 81.5822 111.636 81.6194 111.658C81.6565 111.68 81.6998 111.689 81.7427 111.685C81.7856 111.68 81.8259 111.662 81.8576 111.633C82.8081 110.585 83.2589 109.172 83.7695 107.874C84.377 106.121 85.1863 104.444 86.1811 102.877C86.3114 102.682 86.0073 102.448 85.8497 102.622Z" fill="#282020"/>
<path d="M137.188 46.9496C137.188 46.9496 132.843 59.719 135.95 66.2748C139.056 72.8305 158.512 75.883 160.098 90.8033C161.684 105.724 147.888 110.715 147.888 110.715L121.355 74.9923L124.071 46.9496H137.188Z" fill="white"/>
<path d="M137.188 46.9496C137.188 46.9496 132.843 59.719 135.95 66.2748C139.056 72.8305 158.512 75.883 160.098 90.8033C161.684 105.724 147.888 110.715 147.888 110.715L121.355 74.9923L124.071 46.9496H137.188Z" stroke="#282020" stroke-width="0.977664" stroke-linecap="round" stroke-linejoin="round"/>
<path d="M95.1267 14.8984C95.1267 14.8984 92.9541 17.2774 94.5401 24.007C96.1261 30.7366 106.348 43.5875 117.216 50.833C128.085 58.0786 145.172 59.1052 156.6 51.3001L100.868 15.3764C100.868 15.3764 97.359 14.5019 95.1267 14.8984Z" fill="#282020" stroke="#282020" stroke-width="0.977664" stroke-linecap="round" stroke-linejoin="round"/>
<path d="M125.13 54.6568C125.13 54.6568 131.871 57.6387 135.727 47.8784C139.583 38.118 128.948 31.4536 124.033 30.0849C119.117 28.7161 107.63 27.5049 101.981 41.3226C96.3325 55.1402 101.389 62.1468 107.999 63.8523C114.609 65.5578 121.339 63.1571 125.13 54.6568Z" fill="white"/>
<path d="M125.13 54.6568C125.13 54.6568 131.871 57.6387 135.727 47.8784C139.583 38.118 128.948 31.4536 124.033 30.0849C119.117 28.7161 107.63 27.5049 101.981 41.3226C96.3325 55.1402 101.389 62.1468 107.999 63.8523C114.609 65.5578 121.339 63.1571 125.13 54.6568Z" stroke="#282020" stroke-width="0.977664" stroke-linecap="round" stroke-linejoin="round"/>
<g style="mix-blend-mode:multiply" opacity="0.5">
<path d="M116.663 50.7787C116.49 51.3285 116.161 51.8157 115.715 52.1803C115.269 52.545 114.726 52.771 114.153 52.8305C113.58 52.8901 113.002 52.7805 112.491 52.5154C111.979 52.2502 111.557 51.8411 111.275 51.3385C110.994 50.836 110.865 50.2619 110.906 49.6873C110.947 49.1127 111.156 48.5627 111.506 48.1051C111.856 47.6476 112.332 47.3026 112.876 47.1126C113.42 46.9227 114.007 46.8962 114.566 47.0365C114.95 47.143 115.31 47.3245 115.624 47.5707C115.937 47.8169 116.199 48.1227 116.394 48.4707C116.589 48.8186 116.713 49.2017 116.759 49.5979C116.805 49.994 116.772 50.3954 116.663 50.7787Z" fill="white"/>
</g>
<path d="M115.777 43.3485C115.539 44.1095 115.083 44.7841 114.466 45.2889C113.849 45.7937 113.098 46.1065 112.304 46.1887C111.511 46.2709 110.712 46.1189 110.004 45.7515C109.296 45.384 108.712 44.8173 108.323 44.1212C107.934 43.4252 107.758 42.6305 107.816 41.8353C107.874 41.0401 108.163 40.2793 108.649 39.6469C109.134 39.0146 109.795 38.5384 110.548 38.2773C111.301 38.0162 112.115 37.9816 112.888 38.1778C113.418 38.3249 113.915 38.5759 114.348 38.9162C114.781 39.2564 115.143 39.6792 115.411 40.1601C115.68 40.641 115.851 41.1704 115.914 41.7177C115.976 42.265 115.93 42.8193 115.777 43.3485Z" fill="white"/>
<path d="M112.66 41.9635C112.599 42.2366 112.484 42.4949 112.323 42.7235C112.162 42.9522 111.957 43.1466 111.72 43.2956C111.483 43.4446 111.219 43.5452 110.943 43.5915C110.667 43.6379 110.385 43.6291 110.112 43.5657C109.567 43.4125 109.104 43.0491 108.826 42.5552C108.548 42.0614 108.477 41.4774 108.629 40.9315C108.68 40.6502 108.789 40.3825 108.948 40.1449C109.107 39.9074 109.313 39.7052 109.553 39.5509C109.794 39.3966 110.064 39.2936 110.346 39.2482C110.628 39.2028 110.917 39.2161 111.194 39.2872C111.471 39.3582 111.73 39.4856 111.955 39.6613C112.181 39.8371 112.367 40.0573 112.504 40.3085C112.641 40.5596 112.724 40.8361 112.749 41.1209C112.774 41.4056 112.74 41.6925 112.649 41.9635H112.66Z" fill="#282020"/>
<path d="M110.09 34.1477C109.937 34.4867 109.876 34.8605 109.914 35.2307C109.952 35.601 110.088 35.9545 110.308 36.2551C111.312 37.6944 113.567 39.1826 115.261 39.7584H115.294H115.332C117.021 40.1712 118.683 39.1663 118.629 37.5858C118.629 37.5858 118.629 37.5858 118.629 37.5532C118.456 36.7936 118 36.1289 117.352 35.6956C115.929 34.5767 114.278 33.3384 112.54 32.7083C112.318 32.6302 112.083 32.5981 111.849 32.6139C111.614 32.6298 111.386 32.6933 111.177 32.8006C111.151 32.8069 111.127 32.818 111.106 32.8332C110.902 33.0199 110.719 33.2295 110.563 33.4579C110.352 33.6459 110.189 33.8827 110.09 34.1477Z" fill="white"/>
<path d="M115.506 39.5139C114.102 39.0209 112.81 38.2548 111.704 37.2598C110.172 36.0378 109.249 34.5061 111.16 32.9147C111.361 32.7463 111.074 32.4638 110.878 32.6268C107.32 35.6413 112.692 39.1446 115.392 40.0625C115.739 40.1765 115.897 39.6225 115.544 39.5193L115.506 39.5139Z" fill="#282020"/>
<path d="M118.433 37.6781C118.488 39.2315 116.804 39.8887 115.506 39.5139C115.435 39.4982 115.361 39.5102 115.299 39.5473C115.237 39.5844 115.192 39.6439 115.172 39.7135C115.153 39.783 115.161 39.8574 115.195 39.9213C115.228 39.9852 115.285 40.0338 115.354 40.057C116.983 40.4481 119.014 39.5736 118.949 37.6781C118.949 37.3467 118.406 37.3467 118.433 37.6781Z" fill="#282020"/>
<path d="M117.249 36.0215C117.842 36.4013 118.266 36.9944 118.433 37.6781C118.477 37.9985 118.976 38.004 118.949 37.6781C118.869 37.2704 118.71 36.8826 118.479 36.5368C118.249 36.191 117.953 35.8941 117.608 35.663C117.358 35.4566 116.994 35.8151 117.249 36.0215Z" fill="#282020"/>
<path d="M112.29 32.8549C114.093 33.5447 115.745 34.8428 117.249 36.0215C117.504 36.2224 117.868 35.864 117.608 35.663C116.038 34.4246 114.305 33.1211 112.404 32.4367C112.138 32.3389 112.029 32.7572 112.29 32.8549Z" fill="#282020"/>
<path d="M111.057 32.9146C111.245 32.8127 111.453 32.7545 111.667 32.7441C111.88 32.7338 112.093 32.7716 112.29 32.8549C112.556 32.9418 112.676 32.5127 112.404 32.4367C112.153 32.3421 111.885 32.3053 111.618 32.3288C111.35 32.3523 111.092 32.4356 110.862 32.5724C110.65 32.7137 110.862 33.0558 111.057 32.9146Z" fill="#282020"/>
<path d="M110.09 34.0552C110.15 33.838 110.416 33.6261 110.558 33.4632C110.712 33.2698 110.881 33.0882 111.063 32.92C111.084 32.9029 111.103 32.8817 111.116 32.8575C111.13 32.8334 111.138 32.8068 111.142 32.7793C111.145 32.7519 111.143 32.724 111.135 32.6973C111.128 32.6707 111.115 32.6458 111.098 32.624C111.081 32.6023 111.06 32.5841 111.035 32.5705C111.011 32.557 110.985 32.5483 110.957 32.5451C110.93 32.5418 110.902 32.544 110.875 32.5514C110.849 32.5589 110.824 32.5716 110.802 32.5887C110.583 32.7834 110.386 33.002 110.215 33.2405C110.021 33.4479 109.873 33.6941 109.781 33.9629C109.77 34.0018 109.775 34.0434 109.795 34.0785C109.815 34.1136 109.848 34.1395 109.887 34.1503C109.926 34.1611 109.967 34.156 110.002 34.1361C110.038 34.1163 110.063 34.0832 110.074 34.0444L110.09 34.0552Z" fill="#282020"/>
<path d="M107.782 44.6141C107.748 45.0607 107.832 45.5085 108.026 45.9122C108.181 46.3225 108.486 46.6586 108.879 46.8518C108.923 46.8518 108.993 46.8247 108.955 46.7758C108.44 46.1516 108.099 45.402 107.967 44.6032C107.967 44.5787 107.957 44.5552 107.94 44.5379C107.922 44.5206 107.899 44.5109 107.874 44.5109C107.85 44.5109 107.826 44.5206 107.809 44.5379C107.792 44.5552 107.782 44.5787 107.782 44.6032V44.6141Z" fill="#282020"/>
<path d="M107.359 45.5863C107.406 45.9595 107.503 46.3248 107.646 46.6726C107.719 46.9623 107.883 47.2211 108.113 47.4112C108.184 47.4547 108.309 47.4112 108.293 47.308C108.223 47.0362 108.109 46.7776 107.956 46.5422C107.805 46.2109 107.689 45.8651 107.608 45.5102C107.565 45.3419 107.331 45.4179 107.359 45.5808V45.5863Z" fill="#282020"/>
<path d="M106.158 54.4939C106.158 54.4939 115.712 57.53 123.848 54.7328C123.848 54.7328 117.293 43.1366 125.945 40.3829C134.597 37.6291 136.558 44.9725 136.558 44.9725C136.558 44.9725 135.379 53.4184 128.226 55.2923C128.226 55.2923 126.016 80.7713 124.701 87.4846C123.387 94.1979 123.392 144.14 99.6892 149.039C75.9863 153.939 77.7895 130.111 77.7895 130.111C77.7895 130.111 77.7352 120.579 85.8715 120.579C94.0079 120.579 93.3887 128.628 93.3887 128.628C93.3887 128.628 91.7592 121.877 85.4968 125.603C79.2343 129.329 86.2191 142.006 93.128 135.01C100.037 128.014 91.8516 121.649 91.9222 115.56C91.9928 109.471 99.939 53.4782 99.939 53.4782L106.158 54.4939Z" fill="white"/>
<path d="M106.158 54.4939C106.158 54.4939 116.103 57.4051 124.234 54.6025C124.234 54.6025 117.293 43.1366 125.945 40.3829C134.597 37.6291 136.558 44.9725 136.558 44.9725C136.558 44.9725 135.379 53.4184 128.226 55.2923C128.226 55.2923 126.016 80.7713 124.701 87.4846C123.387 94.1979 123.392 144.14 99.6892 149.039C75.9863 153.939 77.7895 130.111 77.7895 130.111C77.7895 130.111 77.7352 120.579 85.8715 120.579C94.0079 120.579 93.3887 128.628 93.3887 128.628C93.3887 128.628 91.7592 121.877 85.4968 125.603C79.2343 129.329 86.2191 142.006 93.128 135.01C100.037 128.014 91.8516 121.649 91.9222 115.56C91.9928 109.471 99.939 53.4782 99.939 53.4782L106.158 54.4939Z" stroke="#282020" stroke-width="0.977664" stroke-linecap="round" stroke-linejoin="round"/>
<path d="M81.8251 127.949C82.2349 126.989 82.8592 126.135 83.65 125.454C84.4409 124.772 85.3773 124.28 86.3875 124.017C87.8377 123.62 89.3857 123.419 90.6621 124.527C91.3256 125.223 91.8755 126.018 92.2915 126.885C92.5305 127.287 93.1062 126.933 92.9107 126.521C91.7267 123.973 90.1189 122.61 87.224 123.077C84.6169 123.501 81.9717 125.027 81.4883 127.797C81.4557 127.998 81.7436 128.166 81.8468 127.949H81.8251Z" fill="#282020"/>
<path d="M95.9687 119.405C96.892 124.109 96.3435 127.889 94.6977 132.321C94.5565 132.702 95.1594 132.946 95.3495 132.598C96.4377 130.577 97.0851 128.348 97.2489 126.058C97.4127 123.768 97.0893 121.469 96.3 119.313C96.2831 119.275 96.253 119.244 96.2153 119.226C96.1775 119.209 96.1347 119.205 96.0945 119.216C96.0543 119.227 96.0194 119.253 95.9963 119.287C95.9732 119.322 95.9634 119.364 95.9687 119.405Z" fill="#282020"/>
<path d="M124.321 54.2387C123.579 52.4408 123.252 50.4989 123.365 48.5573C123.555 45.9557 124.782 44.94 126.836 43.6201C126.865 43.6009 126.888 43.5727 126.901 43.5396C126.914 43.5065 126.916 43.4701 126.907 43.4358C126.898 43.4014 126.878 43.3708 126.851 43.3483C126.823 43.3258 126.79 43.3126 126.754 43.3105C124.907 43.0824 123.495 45.0323 122.952 46.602C122.137 49.1168 122.697 52.1095 123.886 54.4125C124 54.6352 124.391 54.4776 124.294 54.2387H124.321Z" fill="#282020"/>
<path d="M92.2916 147.524C100.77 150.74 111.6 143.304 113.387 134.847C113.401 134.798 113.395 134.746 113.37 134.701C113.345 134.657 113.303 134.625 113.254 134.611C113.205 134.597 113.153 134.603 113.109 134.628C113.064 134.653 113.032 134.695 113.018 134.744C111.437 138.483 108.969 141.781 105.827 144.352C102.345 147.236 96.7128 147.91 92.3948 147.166C92.3473 147.152 92.2962 147.158 92.2529 147.182C92.2097 147.206 92.1776 147.246 92.164 147.293C92.1503 147.341 92.156 147.392 92.18 147.435C92.2039 147.478 92.2441 147.51 92.2916 147.524Z" fill="#282020"/>
<path d="M129.551 53.5542C129.378 55.8735 127.922 58.0787 126.146 58.7902C124.582 59.4094 122.979 59.4094 121.301 57.8125C121.209 57.7256 120.97 57.1716 120.856 57.1825C120.572 56.8117 120.313 56.4235 120.079 56.0201C119.758 55.477 119.699 55.8626 119.894 55.3792C120.166 54.7111 120.98 54.0214 121.415 53.4456C122.425 52.0986 122.366 51.034 123.588 49.9043C122.8 50.1487 123.979 49.4698 123.984 49.4698C124.973 48.8017 126.743 49.0516 128.096 49.9369C129.524 50.8874 129.622 52.6092 129.551 53.5542Z" fill="white"/>
<g style="mix-blend-mode:multiply" opacity="0.5">
<path d="M127.183 55.2271C126.005 56.8946 124.212 57.5898 123.186 56.7805C122.159 55.9712 122.284 53.9616 123.463 52.2941C124.641 50.6267 126.434 49.9315 127.46 50.7407C128.487 51.55 128.367 53.5597 127.183 55.2271Z" fill="url(#paint2_linear_284_4473)"/>
</g>
<path d="M124.321 49.2363C125.272 48.6008 126.57 48.4325 128.292 49.5676C132.827 52.5495 127.509 63.8959 120.899 57.6116" stroke="#282020" stroke-width="0.977664" stroke-linecap="round" stroke-linejoin="round"/>
<path d="M122.686 51.3436C123.066 50.9906 123.392 50.5941 123.772 50.2573C124.21 49.8967 124.677 49.5733 125.168 49.2905C125.247 49.2412 125.305 49.1656 125.333 49.0773C125.361 48.9889 125.357 48.8935 125.321 48.808C125.285 48.7226 125.22 48.6527 125.137 48.6107C125.054 48.5688 124.96 48.5575 124.869 48.579C124.232 48.7501 123.663 49.1144 123.24 49.6219C122.816 50.0541 122.513 50.5896 122.36 51.1753C122.351 51.2182 122.355 51.2631 122.373 51.3034C122.391 51.3436 122.421 51.3771 122.459 51.3989C122.497 51.4208 122.542 51.4298 122.585 51.4247C122.629 51.4197 122.67 51.4008 122.702 51.3708L122.686 51.3436Z" fill="#282020"/>
<path d="M119.52 53.929C119.221 55.4824 119.753 57.9592 121.459 58.5512C121.523 58.5663 121.59 58.5625 121.652 58.5405C121.714 58.5184 121.768 58.4789 121.808 58.4267C121.848 58.3746 121.872 58.3119 121.878 58.2463C121.883 58.1807 121.87 58.115 121.839 58.0569C121.388 57.5215 120.978 56.9533 120.611 56.3569C120.28 55.5716 120.016 54.7593 119.824 53.929C119.815 53.8956 119.795 53.866 119.767 53.845C119.74 53.8239 119.706 53.8125 119.672 53.8125C119.637 53.8125 119.603 53.8239 119.576 53.845C119.548 53.866 119.529 53.8956 119.52 53.929Z" fill="#282020"/>
<path d="M113.871 22.4265C113.871 22.4265 141.837 5.67039 150.582 5.04577C159.327 4.42115 169.011 14.1218 178.527 16.3269C188.043 18.5321 197.428 9.84176 190.976 0.48877C190.976 0.48877 198.281 5.19242 194.343 16.3487C190.406 27.5049 174.318 21.7801 167.088 24.4687C159.859 27.1573 145.661 43.6472 145.661 43.6472L113.871 22.4265Z" fill="url(#paint3_linear_284_4473)"/>
<path d="M153.651 29.1017C153.678 29.0494 153.69 28.9903 153.685 28.9315C153.68 28.8727 153.658 28.8166 153.622 28.7698C153.586 28.723 153.537 28.6874 153.482 28.6673C153.426 28.6472 153.366 28.6434 153.309 28.6563C149.724 29.6557 146.101 30.6062 142.587 31.8283C143.717 29.6557 144.83 27.4451 146.03 25.3105C147.084 23.4095 148.382 21.5574 149.137 19.5152C149.145 19.4842 149.143 19.4515 149.13 19.4221C149.118 19.3926 149.096 19.368 149.069 19.3521C149.041 19.3361 149.009 19.3296 148.977 19.3335C148.945 19.3375 148.916 19.3517 148.893 19.3739L148.839 19.4446C144.11 20.6582 139.632 22.6933 135.607 25.4572C137.416 21.943 139.046 18.5321 141.381 15.3438C141.593 15.0614 141.251 14.8006 140.985 14.8006C136.096 15.5285 130.806 16.8049 126.559 19.4934C127.08 18.3305 127.671 17.2005 128.329 16.1096C129.111 14.9201 130.198 13.8936 130.795 12.5955C130.815 12.5574 130.82 12.5131 130.809 12.4715C130.797 12.43 130.771 12.3944 130.734 12.3721C130.697 12.3499 130.653 12.3426 130.611 12.3518C130.569 12.361 130.532 12.386 130.507 12.4217C128.878 14.7952 126.738 16.9135 125.901 19.7596C125.836 19.9605 126.07 20.1072 126.233 20.042C126.259 20.0497 126.288 20.0497 126.314 20.042C130.996 18.2931 135.358 16.5061 140.279 15.648C138.106 18.695 136.037 22.0734 135.043 25.7016C135.029 25.7384 135.029 25.7789 135.043 25.8157C135.027 25.8313 135.019 25.8521 135.018 25.8739C135.018 25.8957 135.025 25.9169 135.04 25.9333C135.054 25.9497 135.074 25.9602 135.096 25.9625C135.117 25.9649 135.139 25.959 135.157 25.946C135.194 25.9576 135.235 25.9551 135.271 25.9392C135.307 25.9232 135.336 25.8948 135.352 25.8591C139.697 23.6431 144.081 21.6497 148.583 19.7107C145.868 23.1488 143.722 27.7004 142.033 31.7142C142.021 31.7525 142.019 31.7931 142.027 31.8324C142.034 31.8717 142.052 31.9086 142.077 31.9397C142.102 31.9708 142.134 31.9952 142.171 32.0109C142.208 32.0265 142.248 32.0328 142.288 32.0293C142.276 32.0662 142.275 32.1057 142.283 32.1436C142.292 32.1815 142.31 32.2164 142.337 32.2447C142.363 32.273 142.397 32.2936 142.434 32.3044C142.472 32.3153 142.511 32.3159 142.549 32.3063C145.992 31.5133 149.382 30.465 152.766 29.4493C151.499 32.0436 150.047 34.5432 148.42 36.9285C148.295 37.1077 148.496 37.2978 148.676 37.2652C150.043 37.0572 151.378 36.6719 152.646 36.1192C152.776 36.0594 152.684 35.8639 152.554 35.8965C152.293 35.9562 149.403 36.7764 149.365 36.684C149.213 36.2875 150.348 35.0057 150.604 34.5984C151.725 32.8268 152.743 30.9915 153.651 29.1017Z" fill="white"/>
<g style="mix-blend-mode:multiply" opacity="0.5">
<path d="M195.381 8.22864C195.357 9.38965 195.127 10.5372 194.702 11.6179C193.838 14.1512 192.157 16.3256 189.922 17.7989C187.402 19.3903 184.491 19.8411 181.536 19.7108C178.5 19.5695 175.518 18.8689 172.476 18.8526C169.329 18.8615 166.201 19.3487 163.199 20.2974C157.209 22.2125 151.756 25.5158 147.285 29.9382C144.912 32.252 142.886 34.8809 140.735 37.3902L139.105 39.2803L145.65 43.6255C145.65 43.6255 159.854 27.1573 167.088 24.4687C174.323 21.7802 190.411 27.4995 194.343 16.3487C195.337 13.7649 195.693 10.9794 195.381 8.22864Z" fill="url(#paint4_linear_284_4473)"/>
</g>
<path d="M113.871 22.4265C113.871 22.4265 141.837 5.67039 150.582 5.04577C159.327 4.42115 169.011 14.1218 178.527 16.3269C188.043 18.5321 197.428 9.84176 190.976 0.48877C190.976 0.48877 198.281 5.19242 194.343 16.3487C190.406 27.5049 174.318 21.7801 167.088 24.4687C159.859 27.1573 145.661 43.6472 145.661 43.6472L113.871 22.4265Z" stroke="#282020" stroke-width="0.977664" stroke-linecap="round" stroke-linejoin="round"/>
<path d="M171.374 15.3059C172.503 16.7344 174.633 16.8484 176.311 17.0711C178.712 17.3861 181.465 17.6143 183.785 16.8213C183.835 16.8097 183.879 16.7799 183.908 16.7377C183.937 16.6954 183.95 16.6438 183.943 16.5929C183.936 16.5419 183.91 16.4954 183.871 16.4623C183.832 16.4292 183.782 16.4119 183.73 16.4139C179.82 16.0609 175.143 17.2286 171.569 15.056C171.401 14.9528 171.271 15.1755 171.374 15.3059Z" fill="#282020"/>
<path d="M177.202 21.2153C173.959 21.2593 170.748 21.8658 167.713 23.0077C164.785 24.1755 162.347 26.5436 159.875 28.4392C159.718 28.5641 159.799 28.8791 160.027 28.7977C162.656 27.8417 164.487 25.5714 166.958 24.3058C170.097 22.6764 173.85 22.3885 177.25 21.5901C177.293 21.5794 177.331 21.5532 177.356 21.5166C177.38 21.4799 177.391 21.4354 177.385 21.3916C177.379 21.3478 177.356 21.3078 177.323 21.2793C177.289 21.2508 177.246 21.2357 177.202 21.2371V21.2153Z" fill="#282020"/>
<path d="M191.188 1.62942C193.387 3.69881 194.251 7.41937 194.142 10.3687C194.028 13.5949 192.089 15.7187 190.302 18.1845C190.156 18.3909 190.465 18.5702 190.634 18.4344C195.408 14.6324 196.646 5.36084 191.389 1.37414C191.237 1.26008 191.052 1.5045 191.188 1.62942Z" fill="#282020"/>
<path d="M95.1267 14.8985C95.1267 14.8985 99.3198 13.4375 103.513 21.5521C107.706 29.6667 122.523 51.2351 156.6 51.3002C156.6 51.3002 142.983 35.3209 127.716 26.0222C112.448 16.7235 100.14 13.8014 95.1267 14.8985Z" fill="url(#paint5_linear_284_4473)"/>
<path d="M95.1267 14.8985C95.1267 14.8985 99.3198 13.4375 103.513 21.5521C107.706 29.6667 122.523 51.2351 156.6 51.3002C156.6 51.3002 142.983 35.3209 127.716 26.0222C112.448 16.7235 100.14 13.8014 95.1267 14.8985Z" stroke="#282020" stroke-width="0.977664" stroke-linecap="round" stroke-linejoin="round"/>
<path d="M99.3633 15.0125C102.47 16.3704 103.899 19.5913 105.696 22.2581C107.366 24.8726 109.299 27.3095 111.465 29.5308C111.617 29.6829 111.91 29.482 111.774 29.2919C109.444 26.033 106.886 22.9533 104.713 19.5913C103.339 17.4947 101.965 15.5285 99.4773 14.7627C99.3307 14.7192 99.2275 14.9528 99.3687 15.0125H99.3633Z" fill="#282020"/>
<path d="M113.268 31.622C116.836 37.1676 123.044 40.3124 128.758 43.1965C128.807 43.2253 128.866 43.2335 128.921 43.2192C128.976 43.205 129.023 43.1694 129.052 43.1205C129.08 43.0715 129.089 43.0131 129.074 42.9581C129.06 42.903 129.025 42.856 128.976 42.8272C123.441 39.2044 117.83 36.6298 113.534 31.4211C113.414 31.2744 113.17 31.4645 113.268 31.6275V31.622Z" fill="#282020"/>
<path d="M132.528 45.0811C138.937 49.1221 147.481 49.4263 154.835 49.7793C155.204 49.7793 155.204 49.2362 154.835 49.1982C150.881 48.9809 146.948 48.8288 143.043 48.1119C139.475 47.4116 136.009 46.2694 132.723 44.7118C132.674 44.6859 132.617 44.6804 132.564 44.6967C132.511 44.713 132.467 44.7497 132.441 44.7987C132.415 44.8477 132.41 44.9049 132.426 44.9579C132.442 45.0109 132.479 45.0552 132.528 45.0811Z" fill="#282020"/>
<path d="M117.124 153.607C117.124 153.607 114.778 138.329 113.833 124.886C112.888 111.443 110.802 97.8805 110.802 97.8805C110.802 97.8805 116.402 95.5069 120.655 101.829C124.907 108.151 123.962 146.063 117.124 153.607Z" fill="#282020" stroke="#282020" stroke-width="0.977664" stroke-linecap="round" stroke-linejoin="round"/>
<path d="M108.684 116.831C109.275 118.157 110.249 119.277 111.481 120.046C111.922 120.146 112.371 120.206 112.822 120.226C113.137 120.226 113.708 120.226 113.844 119.873C113.891 119.638 113.85 119.395 113.73 119.188C113.544 118.804 113.321 118.44 113.061 118.102C112.451 117.388 111.924 116.606 111.492 115.772C111.139 114.861 111.089 113.861 111.351 112.92C111.479 112.452 111.662 112 111.894 111.573C112.122 111.144 112.29 110.682 112.497 110.243C112.653 109.841 112.905 109.483 113.23 109.2C113.503 109.013 113.836 108.935 114.164 108.982C114.561 109.015 114.957 109.113 115.348 109.167C115.739 109.221 116.174 109.287 116.586 109.357C117.76 109.538 118.905 109.872 119.992 110.351C118.938 102.204 115.142 100.102 114.979 100.031C114.921 100.002 114.858 99.984 114.794 99.9771C112.582 99.8494 110.393 100.488 108.597 101.786C105.919 103.85 101.232 110.232 99.8141 112.996C98.5811 115.408 99.3198 122.143 100.716 124.239C100.826 124.456 100.989 124.641 101.191 124.777C101.392 124.913 101.625 124.995 101.867 125.016H101.949C103.524 124.897 103.361 122.262 103.192 119.476C103.074 118.362 103.074 117.239 103.192 116.125C103.35 115.487 103.623 114.884 103.996 114.343C103.834 115.001 103.754 115.676 103.757 116.353C103.817 117.657 105.099 122.708 106.631 124.066C106.767 124.202 106.93 124.309 107.109 124.38C107.288 124.451 107.481 124.485 107.673 124.478C107.818 124.469 107.959 124.427 108.086 124.357C108.212 124.286 108.322 124.189 108.407 124.071C109.08 123.175 108.667 120.867 108.059 117.939C107.891 117.255 107.771 116.56 107.701 115.859C107.777 115.366 107.906 114.884 108.086 114.419C108.207 115.241 108.407 116.048 108.684 116.831Z" fill="white"/>
<path d="M114.957 100.01C114.957 100.01 111.47 100.151 108.874 102.15C106.278 104.148 101.623 110.471 100.227 113.197C98.831 115.924 100.162 124.636 101.889 124.506C103.616 124.375 102.226 118.053 102.687 115.989C103.149 113.925 105.017 112.383 105.017 112.383C105.017 112.383 104.154 114.886 104.219 116.304C104.284 117.722 105.946 124.087 107.614 123.962C109.281 123.837 107.098 116.853 107.185 115.815C107.272 114.778 108.342 112.41 108.342 112.41C108.404 113.865 108.673 115.304 109.14 116.684C109.873 118.612 112.567 120.742 113.882 120.139C115.196 119.536 111.204 116.95 111.204 113.958C111.204 111.584 113.377 110.699 113.349 107.918" stroke="#282020" stroke-width="0.977664" stroke-linecap="round" stroke-linejoin="round"/>
<path d="M113.398 109.08C115.12 108.716 116.869 109.444 118.477 110.166L119.514 110.623" stroke="#282020" stroke-width="0.977664" stroke-linecap="round" stroke-linejoin="round"/>
<path d="M112.594 104.447C112.783 105.258 112.923 106.08 113.013 106.908C113.013 107.836 112.703 108.537 112.502 109.395C112.484 109.466 112.487 109.54 112.511 109.608C112.535 109.677 112.579 109.737 112.638 109.78C112.696 109.823 112.766 109.848 112.839 109.851C112.911 109.854 112.983 109.835 113.045 109.797C114.588 108.89 114.224 105.202 112.909 104.219C112.747 104.099 112.589 104.3 112.611 104.447H112.594Z" fill="#282020"/>
<path d="M106.212 110.742C105.599 110.834 105.083 111.53 104.686 111.959C104.29 112.388 103.698 112.86 103.801 113.452C103.813 113.5 103.841 113.542 103.881 113.572C103.92 113.602 103.969 113.617 104.018 113.615C104.605 113.577 104.969 112.882 105.327 112.475C105.685 112.067 106.337 111.573 106.462 110.992C106.471 110.957 106.47 110.921 106.461 110.887C106.451 110.853 106.433 110.822 106.408 110.797C106.383 110.771 106.351 110.753 106.317 110.744C106.283 110.734 106.247 110.734 106.212 110.742Z" fill="#282020"/>
<path d="M109.048 110.465C108.659 110.828 108.371 111.284 108.211 111.79C108.026 112.241 107.668 112.877 107.874 113.333C107.888 113.377 107.912 113.416 107.945 113.448C107.978 113.479 108.018 113.502 108.062 113.514C108.106 113.525 108.153 113.525 108.197 113.513C108.241 113.502 108.282 113.479 108.314 113.447C108.684 113.143 108.733 112.513 108.885 112.078C109.098 111.6 109.24 111.093 109.308 110.574C109.306 110.544 109.296 110.516 109.279 110.492C109.262 110.468 109.239 110.45 109.212 110.439C109.185 110.427 109.155 110.424 109.126 110.428C109.097 110.433 109.07 110.446 109.048 110.465Z" fill="#282020"/>
<path d="M126.553 71.6302C126.553 71.6302 130.556 69.941 137.867 77.7461C145.178 85.5511 159.669 102.443 156.605 111.801C153.542 121.16 139.572 125.576 117.13 153.624C117.13 153.624 126.119 109.004 118.797 101.845C113.404 96.5715 110.78 97.8968 110.78 97.8968C110.78 97.8968 117.401 92.927 122.898 98.5486L126.553 71.6302Z" fill="url(#paint6_linear_284_4473)"/>
<path d="M139.046 124.457C139.23 124.261 139.111 123.848 138.801 123.875C135.335 124.203 131.854 124.336 128.373 124.272C131.854 122.436 134.804 119.308 137.036 116.157C137.071 116.094 137.088 116.023 137.087 115.951C137.087 115.88 137.067 115.809 137.031 115.747C136.995 115.685 136.944 115.633 136.882 115.596C136.82 115.56 136.749 115.54 136.678 115.538C133.212 115.696 129.769 115.489 126.309 115.468C130.078 113.83 133.572 111.621 136.667 108.917C136.944 108.684 136.705 108.255 136.384 108.238C133.066 108.108 130.339 107.098 127.33 105.919C128.194 105.717 129.04 105.446 129.861 105.11C129.928 105.088 129.985 105.046 130.027 104.989C130.068 104.933 130.09 104.865 130.09 104.795C130.09 104.725 130.068 104.657 130.027 104.6C129.985 104.543 129.928 104.501 129.861 104.48C127.102 103.665 125.027 101.221 123.615 98.869C123.596 98.8415 123.57 98.8206 123.538 98.8092C123.507 98.7979 123.473 98.7966 123.441 98.8056C123.41 98.8147 123.381 98.8335 123.361 98.8595C123.34 98.8855 123.328 98.9173 123.327 98.9505C123.327 100.352 124.511 101.492 125.5 102.372C126.487 103.355 127.626 104.173 128.872 104.795C128.221 105.017 127.564 105.213 126.895 105.381C126.855 105.39 126.817 105.408 126.784 105.433C126.75 105.458 126.723 105.49 126.703 105.527C126.684 105.563 126.672 105.604 126.67 105.645C126.667 105.687 126.674 105.728 126.689 105.767C126.672 105.781 126.658 105.799 126.649 105.819C126.639 105.839 126.634 105.861 126.634 105.884C126.634 105.906 126.639 105.928 126.649 105.948C126.658 105.968 126.672 105.986 126.689 106.001C129.144 107.902 132.316 108.716 135.379 108.966C132.234 111.462 128.787 113.552 125.119 115.185C125.065 115.21 125.019 115.251 124.988 115.302C124.957 115.354 124.942 115.413 124.946 115.473C124.652 115.473 124.565 115.946 124.87 116.016C128.454 116.635 132.213 116.559 135.847 116.418C133.419 119.606 130.573 121.85 127.368 124.277H127.292C127.242 124.276 127.192 124.29 127.15 124.318C127.108 124.345 127.076 124.385 127.056 124.431C127.037 124.477 127.032 124.528 127.042 124.577C127.052 124.627 127.077 124.672 127.113 124.706C127.138 124.749 127.177 124.781 127.224 124.797C127.271 124.813 127.322 124.812 127.368 124.793C130.9 124.974 134.44 124.923 137.965 124.641C134.315 128.443 130.556 132.142 127.151 136.14C127.119 136.171 127.101 136.214 127.101 136.259C127.101 136.304 127.119 136.347 127.151 136.379C127.182 136.41 127.225 136.428 127.27 136.428C127.315 136.428 127.358 136.41 127.39 136.379L127.487 136.286H127.542C130.171 135.091 133.37 134.89 135.83 133.381C135.873 133.363 135.906 133.328 135.924 133.286C135.941 133.243 135.941 133.195 135.923 133.152C135.905 133.11 135.87 133.076 135.828 133.059C135.785 133.042 135.737 133.042 135.694 133.06C133.191 133.638 130.744 134.44 128.384 135.455C132.039 131.914 135.493 128.123 139.046 124.457Z" fill="white"/>
<path d="M126.553 71.6301C129.073 71.7659 133.299 72.8685 137.867 77.746C145.178 85.5455 159.669 102.443 156.605 111.801C153.542 121.16 139.572 125.575 117.13 153.624C117.13 153.624 126.119 109.004 118.797 101.845C113.404 96.5714 110.78 97.8967 110.78 97.8967C110.78 97.8967 118.053 92.0525 122.898 98.5485L126.553 71.6301Z" stroke="#282020" stroke-width="0.977664" stroke-linecap="round" stroke-linejoin="round"/>
<path d="M124.516 106.299C124.913 102.823 124.424 97.1255 120.389 95.8165C119.954 95.6753 119.796 96.2565 120.106 96.4954C121.676 97.7012 122.822 98.7441 123.457 100.656C124.093 102.568 124.066 104.393 124.191 106.299C124.191 106.342 124.208 106.384 124.238 106.414C124.269 106.445 124.31 106.462 124.353 106.462C124.397 106.462 124.438 106.445 124.469 106.414C124.499 106.384 124.516 106.342 124.516 106.299Z" fill="#282020"/>
<path d="M132.289 106.522C131.691 102.036 127.835 99.6892 123.718 98.793C123.663 98.778 123.605 98.7741 123.548 98.7814C123.491 98.7887 123.437 98.8072 123.387 98.8356C123.337 98.8641 123.294 98.9021 123.259 98.9475C123.224 98.9928 123.198 99.0446 123.183 99.0999C123.168 99.1552 123.164 99.2129 123.171 99.2697C123.179 99.3265 123.197 99.3813 123.226 99.4309C123.254 99.4806 123.292 99.5242 123.337 99.5592C123.383 99.5942 123.435 99.6199 123.49 99.6349C125.353 100.232 127.265 100.634 128.867 101.807C130.379 103.002 131.433 104.68 131.854 106.56C131.92 106.794 132.321 106.756 132.289 106.5V106.522Z" fill="#282020"/>
<path d="M147.084 103.888C142.462 100.33 134.977 100.129 129.486 101.145C129.025 101.226 129.122 102.025 129.6 101.976C135.455 101.395 141.55 101.498 146.856 104.273C146.881 104.288 146.909 104.298 146.939 104.302C146.968 104.306 146.997 104.305 147.026 104.298C147.054 104.29 147.081 104.277 147.105 104.26C147.128 104.242 147.148 104.22 147.163 104.195C147.178 104.169 147.188 104.141 147.192 104.112C147.196 104.083 147.194 104.053 147.187 104.025C147.18 103.996 147.167 103.97 147.149 103.946C147.132 103.923 147.11 103.903 147.084 103.888Z" fill="#282020"/>
<path d="M127.129 91.1021C127.672 92.9488 128.492 94.7411 129.106 96.577C129.63 98.2658 130.385 99.8742 131.349 101.357C131.588 101.699 132.251 101.498 132.077 101.053C131.311 99.1135 130.382 97.2505 129.633 95.3114C129.114 93.7521 128.369 92.2772 127.422 90.9337C127.314 90.7925 127.08 90.9337 127.129 91.1021Z" fill="#282020"/>
<path d="M123.294 118.162C122.876 128.91 122.404 139.92 119.585 150.343C119.519 150.582 119.856 150.658 119.943 150.441C121.953 145.373 122.425 139.925 122.903 134.548C123.381 129.171 124.397 123.512 123.696 118.162C123.696 118.108 123.675 118.057 123.637 118.019C123.6 117.982 123.549 117.961 123.495 117.961C123.442 117.961 123.391 117.982 123.353 118.019C123.316 118.057 123.294 118.108 123.294 118.162Z" fill="#282020"/>
<path d="M121.665 102.345C120.72 98.4345 114.751 96.3 111.166 96.9626C110.867 97.0224 110.959 97.4569 111.236 97.4732C114.957 97.6741 119.671 98.5975 121.399 102.459C121.469 102.611 121.697 102.503 121.665 102.345Z" fill="#282020"/>
<path d="M22.0618 35.3194L49.5848 61.7384C51.4456 63.5246 52.9188 62.6265 54.0001 61.5001C55.0813 60.3736 55.3613 59.4453 53.5004 57.6591L25.9775 31.2401C24.1167 29.454 21.7316 28.9192 20.6504 30.0456C19.5691 31.1721 20.201 33.5333 22.0618 35.3194Z" fill="url(#paint7_linear_284_4473)"/>
<path d="M21.6821 33.3432L23.5025 35.0906C24.1665 35.728 25.221 35.7068 25.8579 35.0433C26.4948 34.3798 26.4728 33.3253 25.8088 32.6879L23.9884 30.9405C23.3244 30.3032 22.2699 30.3244 21.633 30.9879C20.9961 31.6514 21.0181 32.7059 21.6821 33.3432Z" fill="white"/>
<path d="M35.8832 46.6616C35.9567 46.9379 36.1048 47.1887 36.3112 47.3865L38.249 49.2606C38.5509 49.5495 38.955 49.7069 39.3727 49.6983C39.7904 49.6898 40.1877 49.516 40.4776 49.215L40.6008 49.0866C40.7444 48.9372 40.8573 48.761 40.9327 48.5679C41.0082 48.3749 41.0449 48.1689 41.0407 47.9617C41.0364 47.7544 40.9913 47.5501 40.908 47.3603C40.8247 47.1705 40.7048 46.999 40.5551 46.8557L38.6176 44.9959C38.4112 44.793 38.1527 44.6512 37.8708 44.5861C37.7718 45.0856 37.5321 45.5463 37.1799 45.914C36.8278 46.2817 36.3779 46.5411 35.8832 46.6616Z" fill="white"/>
<path d="M61.2562 75.3507C62.1578 74.0145 62.0601 72.2059 61.4192 70.7231C60.7783 69.2403 59.692 68.0073 58.6383 66.8015C57.5845 65.5957 56.5363 64.3031 56.0257 62.7768C55.7487 61.9512 55.4337 60.8758 54.5647 60.7998C53.8314 60.74 53.2991 61.4841 53.0493 62.1739C52.5927 63.5117 52.5562 64.9571 52.9445 66.3163C53.3328 67.6754 54.1275 68.8833 55.2219 69.778C54.9369 70.3984 54.7289 71.0515 54.6027 71.7224" stroke="#282020" stroke-width="0.977664" stroke-linecap="round" stroke-linejoin="round"/>
<path d="M15.7452 33.9953L9.13068 34.62C8.97427 34.635 8.81645 34.6159 8.66819 34.5638C8.51993 34.5117 8.38476 34.4281 8.27207 34.3185C8.15938 34.209 8.07187 34.0763 8.01559 33.9296C7.95932 33.7829 7.93563 33.6257 7.94618 33.4689L8.1113 31.2266C8.12252 31.0697 8.16803 30.9171 8.24462 30.7796C8.3212 30.6421 8.427 30.5231 8.55456 30.4309C8.68212 30.3388 8.82833 30.2757 8.9829 30.2462C9.13748 30.2166 9.29664 30.2213 9.4492 30.26L15.9046 31.8697C16.1173 31.9189 16.3098 32.0318 16.4566 32.1932C16.6034 32.3547 16.6975 32.5571 16.7263 32.7734C16.7466 32.9188 16.7369 33.0667 16.698 33.2082C16.659 33.3497 16.5914 33.4817 16.4996 33.5962C16.4077 33.7106 16.2934 33.805 16.1636 33.8737C16.0339 33.9423 15.8915 33.9837 15.7452 33.9953Z" fill="url(#paint8_linear_284_4473)"/>
<path d="M20.903 25.2948L18.0828 19.2714C18.016 19.1294 17.9811 18.9746 17.9804 18.8177C17.9798 18.6608 18.0134 18.5057 18.079 18.3632C18.1446 18.2207 18.2405 18.0942 18.3601 17.9927C18.4797 17.8912 18.62 17.817 18.7713 17.7754L20.9334 17.171C21.0851 17.1289 21.2442 17.1206 21.3995 17.1464C21.5549 17.1723 21.7026 17.2319 21.8325 17.3209C21.9624 17.4099 22.0712 17.5262 22.1514 17.6617C22.2316 17.7973 22.2812 17.9487 22.2967 18.1054L22.9543 24.7297C22.9755 24.9447 22.9315 25.1612 22.8281 25.3509C22.7246 25.5406 22.5664 25.6948 22.374 25.7933C22.2453 25.8602 22.1044 25.9004 21.9597 25.9114C21.8151 25.9225 21.6697 25.9042 21.5323 25.8576C21.3949 25.8111 21.2683 25.7372 21.1602 25.6405C21.052 25.5438 20.9646 25.4262 20.903 25.2948Z" fill="url(#paint9_linear_284_4473)"/>
<path d="M7.36946 22.0812L15.8472 29.5845C16.6035 30.254 17.7588 30.1841 18.4276 29.4285C19.0964 28.6728 19.0254 27.5176 18.269 26.8482L9.79133 19.3448C9.03498 18.6754 7.8797 18.7453 7.21092 19.5009C6.54214 20.2565 6.61312 21.4117 7.36946 22.0812Z" fill="url(#paint10_linear_284_4473)"/>
</g>
<defs>
<linearGradient id="paint0_linear_284_4473" x1="77.705" y1="63.698" x2="77.705" y2="124.864" gradientUnits="userSpaceOnUse">
<stop stop-color="#1EDCE3"/>
<stop offset="1" stop-color="#2783EC"/>
</linearGradient>
<linearGradient id="paint1_linear_284_4473" x1="120.019" y1="90.3086" x2="120.019" y2="211.05" gradientUnits="userSpaceOnUse">
<stop stop-color="#1EDCE3"/>
<stop offset="1" stop-color="#2783EC"/>
</linearGradient>
<linearGradient id="paint2_linear_284_4473" x1="125.324" y1="50.4031" x2="125.324" y2="57.1182" gradientUnits="userSpaceOnUse">
<stop stop-color="#1EDCE3"/>
<stop offset="1" stop-color="#2783EC"/>
</linearGradient>
<linearGradient id="paint3_linear_284_4473" x1="154.69" y1="0.48877" x2="154.69" y2="43.6472" gradientUnits="userSpaceOnUse">
<stop stop-color="#1EDCE3"/>
<stop offset="1" stop-color="#2783EC"/>
</linearGradient>
<linearGradient id="paint4_linear_284_4473" x1="167.298" y1="8.22864" x2="167.298" y2="43.6255" gradientUnits="userSpaceOnUse">
<stop stop-color="#1EDCE3"/>
<stop offset="1" stop-color="#2783EC"/>
</linearGradient>
<linearGradient id="paint5_linear_284_4473" x1="125.863" y1="14.6796" x2="125.863" y2="51.3002" gradientUnits="userSpaceOnUse">
<stop stop-color="#1EDCE3"/>
<stop offset="1" stop-color="#2783EC"/>
</linearGradient>
<linearGradient id="paint6_linear_284_4473" x1="133.902" y1="71.4761" x2="133.902" y2="153.624" gradientUnits="userSpaceOnUse">
<stop stop-color="#1EDCE3"/>
<stop offset="1" stop-color="#2783EC"/>
</linearGradient>
<linearGradient id="paint7_linear_284_4473" x1="35.2281" y1="47.9576" x2="39.1437" y2="43.8783" gradientUnits="userSpaceOnUse">
<stop stop-color="#1EDCE3"/>
<stop offset="1" stop-color="#2783EC"/>
</linearGradient>
<linearGradient id="paint8_linear_284_4473" x1="7.82596" y1="32.7179" x2="16.5676" y2="31.5672" gradientUnits="userSpaceOnUse">
<stop stop-color="#1EDCE3"/>
<stop offset="1" stop-color="#2783EC"/>
</linearGradient>
<linearGradient id="paint9_linear_284_4473" x1="18.3827" y1="21.94" x2="22.7267" y2="21.3682" gradientUnits="userSpaceOnUse">
<stop stop-color="#1EDCE3"/>
<stop offset="1" stop-color="#2783EC"/>
</linearGradient>
<linearGradient id="paint10_linear_284_4473" x1="11.6083" y1="25.8329" x2="14.0302" y2="23.0965" gradientUnits="userSpaceOnUse">
<stop stop-color="#1EDCE3"/>
<stop offset="1" stop-color="#2783EC"/>
</linearGradient>
<clipPath id="clip0_284_4473">
<rect width="196" height="158" fill="white"/>
</clipPath>
</defs>
</svg>
