<svg width="13" height="12" viewBox="0 0 13 12" fill="none" xmlns="http://www.w3.org/2000/svg">
<path fill-rule="evenodd" clip-rule="evenodd" d="M6.34122 0.171522C5.94916 0.441528 5.8856 0.934015 6.19924 1.27152L10.5934 6L6.19924 10.7285C5.8856 11.066 5.94916 11.5585 6.34122 11.8285C6.73327 12.0985 7.30535 12.0438 7.619 11.7063L12.4675 6.48889C12.7331 6.20307 12.7331 5.79693 12.4675 5.51111L7.619 0.293744C7.30535 -0.0437635 6.73327 -0.0984842 6.34122 0.171522Z" fill="#202A45"/>
<path opacity="0.47" fill-rule="evenodd" clip-rule="evenodd" d="M0.341218 0.171522C-0.0508362 0.441528 -0.114401 0.934015 0.199243 1.27152L4.59338 6L0.199243 10.7285C-0.1144 11.066 -0.0508357 11.5585 0.341219 11.8285C0.733273 12.0985 1.30535 12.0438 1.619 11.7063L6.46746 6.48889C6.73307 6.20307 6.73307 5.79693 6.46746 5.51111L1.619 0.293744C1.30535 -0.0437635 0.733272 -0.0984842 0.341218 0.171522Z" fill="#202A45"/>
</svg>
