<svg width="16" height="16" viewBox="0 0 16 16" fill="none" xmlns="http://www.w3.org/2000/svg">
<circle cx="7.99961" cy="7.99961" r="6.4" fill="#A1C452"/>
<circle cx="8" cy="8" r="7.5" stroke="#A1C452"/>
<path d="M8.42102 4.80078C7.72243 4.80078 7.18609 5.14769 6.92468 5.70808H6.89764V4.87639H5.59961V11.2008H6.91567V8.84359H6.94271C7.19961 9.38174 7.74045 9.71975 8.44355 9.71975C9.65144 9.71975 10.3996 8.79467 10.3996 7.26027C10.3996 5.72142 9.64693 4.80078 8.42102 4.80078ZM7.97933 8.67458C7.33482 8.67458 6.91116 8.12309 6.91116 7.26027C6.91116 6.40634 7.33482 5.8415 7.97933 5.8415C8.63736 5.8415 9.052 6.39745 9.052 7.26027C9.052 8.12754 8.63736 8.67458 7.97933 8.67458Z" fill="white"/>
</svg>
