<svg width="16" height="16" viewBox="0 0 16 16" fill="none" xmlns="http://www.w3.org/2000/svg">
<circle cx="8.0001" cy="8.0001" r="6.4" fill="#fecf31"/>
<circle cx="8" cy="8" r="7.5" stroke="#fecf31"/>
<path d="M8.42151 4.7998C7.72291 4.7998 7.18658 5.14671 6.92517 5.7071H6.89813V4.87541H5.6001V11.1998H6.91615V8.84261H6.9432C7.2001 9.38076 7.74094 9.71878 8.44404 9.71878C9.65193 9.71878 10.4001 8.79369 10.4001 7.25929C10.4001 5.72044 9.64742 4.7998 8.42151 4.7998ZM7.97982 8.67361C7.33531 8.67361 6.91165 8.12211 6.91165 7.25929C6.91165 6.40536 7.33531 5.84053 7.97982 5.84053C8.63784 5.84053 9.05249 6.39647 9.05249 7.25929C9.05249 8.12656 8.63784 8.67361 7.97982 8.67361Z" fill="white"/>
</svg>
